<?xml version="1.0" encoding="utf-8"?>
<!-- Generator: Adobe Illustrator 21.1.0, SVG Export Plug-In . SVG Version: 6.00 Build 0)  -->
<svg version="1.1" id="Layer_1" xmlns="http://www.w3.org/2000/svg" xmlns:xlink="http://www.w3.org/1999/xlink" x="0px" y="0px"
	 viewBox="0 0 220 163" style="enable-background:new 0 0 220 163;" xml:space="preserve">
<style type="text/css">
	.st0{fill:#8D734A;}
	.st1{fill-rule:evenodd;clip-rule:evenodd;fill:#8D734A;}
	.st2{fill-rule:evenodd;clip-rule:evenodd;fill:#1B1B1B;}
	.st3{fill:#8D734A;stroke:#8D734A;stroke-width:0.8;stroke-miterlimit:10;}
	.st4{display:none;}
	.st5{display:inline;fill:#8D734A;stroke:#8D734A;stroke-width:0.5;stroke-miterlimit:10;}
</style>
<g>
	<g>
		<path class="st0" d="M63.9,86.3c-0.5,0-0.9,0.4-0.9,0.9v3.8c0,0.5,0.4,0.9,0.9,0.9h84.2c0.5,0,0.9-0.4,0.9-0.9v-3.8
			c0-0.5-0.4-0.9-0.9-0.9h-1H63.9z M147,90H64.8v-2H147V90z"/>
		<path class="st0" d="M65.9,90c-0.5,0-0.9,0.4-0.9,0.9v15.8c0,0.5,0.4,0.9,0.9,0.9H146c0.5,0,0.9-0.4,0.9-0.9V90.9
			c0-0.5-0.4-0.9-0.9-0.9h-1H65.9z M145.1,105.8H66.8v-14h78.4V105.8z"/>
		<path class="st1" d="M123.3,74.8v-2.7h9v2.7H123.3z M136.9,87.2v-7c0-1-0.8-1.8-1.8-1.8h-3.6v-1.8h1.8c0.5,0,0.9-0.4,0.9-0.9v-4.5
			c0-0.5-0.4-0.9-0.9-0.9h-10.9c-0.5,0-0.9,0.4-0.9,0.9v4.5c0,0.5,0.4,0.9,0.9,0.9h6.3v1.8H107c-1,0-1.8,0.8-1.8,1.8l0,7l1.8,0v-7
			h28.1v7L136.9,87.2z"/>
		<rect x="85.1" y="90.9" class="st1" width="1.7" height="15.6"/>
		<rect x="95.1" y="90.9" class="st1" width="1.7" height="15.6"/>
		<rect x="105.1" y="90.9" class="st1" width="1.7" height="15.6"/>
		<rect x="115.1" y="90.9" class="st1" width="1.7" height="15.6"/>
		<rect x="125.1" y="90.9" class="st1" width="1.7" height="15.6"/>
		<rect x="135.1" y="90.9" class="st1" width="1.7" height="15.6"/>
		<path class="st0" d="M65.9,55.4c-0.5,0-0.9,0.4-0.9,0.9v17.1c0,0.5,0.4,0.9,0.9,0.9h80.2c0.5,0,0.9-0.4,0.9-0.9V56.3
			c0-0.5-0.4-0.9-0.9-0.9h-1H65.9z M145,72.6H67V57.2h78V72.6z"/>
		<path class="st2" d="M123.3,74.8v-2.7h9v2.7H123.3z"/>
		<g>
			<path class="st3" d="M77.9,68c-0.3,0.3-0.8,0.6-1.5,0.6c-0.7,0-1.2-0.2-1.5-0.6c-0.7-0.7-0.8-1.7-0.8-3c0-1.3,0.1-2.3,0.8-3
				c0.3-0.3,0.8-0.6,1.5-0.6c0.7,0,1.2,0.2,1.5,0.6c0.7,0.7,0.8,1.7,0.8,3C78.7,66.3,78.6,67.3,77.9,68z M77.3,62.5
				c-0.2-0.2-0.5-0.3-0.9-0.3c-0.4,0-0.7,0.1-0.9,0.3C75,63,75,64.1,75,65c0,0.9,0,1.9,0.6,2.5c0.2,0.2,0.5,0.3,0.9,0.3
				c0.4,0,0.7-0.1,0.9-0.3c0.6-0.6,0.6-1.6,0.6-2.5C77.8,64.1,77.9,63,77.3,62.5z"/>
			<path class="st3" d="M83.9,68c-0.3,0.3-0.8,0.6-1.5,0.6c-0.7,0-1.2-0.2-1.5-0.6c-0.7-0.7-0.8-1.7-0.8-3c0-1.3,0.1-2.3,0.8-3
				c0.3-0.3,0.8-0.6,1.5-0.6c0.7,0,1.2,0.2,1.5,0.6c0.7,0.7,0.8,1.7,0.8,3C84.7,66.3,84.6,67.3,83.9,68z M83.3,62.5
				c-0.2-0.2-0.5-0.3-0.9-0.3c-0.4,0-0.7,0.1-0.9,0.3C81,63,81,64.1,81,65c0,0.9,0,1.9,0.6,2.5c0.2,0.2,0.5,0.3,0.9,0.3
				c0.4,0,0.7-0.1,0.9-0.3c0.6-0.6,0.6-1.6,0.6-2.5C83.8,64.1,83.9,63,83.3,62.5z"/>
			<path class="st3" d="M88.4,68.5v-6l-1.6,1.2v-0.9l1.7-1.2h0.8v6.9H88.4z"/>
		</g>
		<g>
			<path class="st3" d="M100.9,68c-0.3,0.3-0.8,0.6-1.5,0.6c-0.7,0-1.2-0.2-1.5-0.6c-0.7-0.7-0.8-1.7-0.8-3c0-1.3,0.1-2.3,0.8-3
				c0.3-0.3,0.8-0.6,1.5-0.6c0.7,0,1.2,0.2,1.5,0.6c0.7,0.7,0.8,1.7,0.8,3C101.7,66.3,101.6,67.3,100.9,68z M100.3,62.5
				c-0.2-0.2-0.5-0.3-0.9-0.3c-0.4,0-0.7,0.1-0.9,0.3C98,63,98,64.1,98,65c0,0.9,0,1.9,0.6,2.5c0.2,0.2,0.5,0.3,0.9,0.3
				c0.4,0,0.7-0.1,0.9-0.3c0.6-0.6,0.6-1.6,0.6-2.5C100.8,64.1,100.9,63,100.3,62.5z"/>
			<path class="st3" d="M106.9,68c-0.3,0.3-0.8,0.6-1.5,0.6c-0.7,0-1.2-0.2-1.5-0.6c-0.7-0.7-0.8-1.7-0.8-3c0-1.3,0.1-2.3,0.8-3
				c0.3-0.3,0.8-0.6,1.5-0.6c0.7,0,1.2,0.2,1.5,0.6c0.7,0.7,0.8,1.7,0.8,3C107.7,66.3,107.6,67.3,106.9,68z M106.3,62.5
				c-0.2-0.2-0.5-0.3-0.9-0.3c-0.4,0-0.7,0.1-0.9,0.3C104,63,104,64.1,104,65c0,0.9,0,1.9,0.6,2.5c0.2,0.2,0.5,0.3,0.9,0.3
				c0.4,0,0.7-0.1,0.9-0.3c0.6-0.6,0.6-1.6,0.6-2.5C106.8,64.1,106.9,63,106.3,62.5z"/>
			<path class="st3" d="M109.3,68.5v-0.7l2.8-3.5c0.3-0.3,0.4-0.6,0.4-1c0-0.7-0.4-1.1-1.1-1.1c-0.6,0-1.2,0.3-1.2,1.3h-0.9
				c0-1.2,0.8-2,2-2c0.8,0,1.3,0.3,1.7,0.8c0.2,0.3,0.3,0.6,0.3,1.1c0,0.5-0.2,1-0.6,1.5l-2.4,2.9h3.1v0.8H109.3z"/>
		</g>
		<g class="st4">
			<path class="st5" d="M124.5,68c-0.3,0.3-0.8,0.6-1.5,0.6c-0.7,0-1.2-0.2-1.5-0.6c-0.7-0.7-0.8-1.7-0.8-3c0-1.3,0.1-2.3,0.8-3
				c0.3-0.3,0.8-0.6,1.5-0.6c0.7,0,1.2,0.2,1.5,0.6c0.7,0.7,0.8,1.7,0.8,3C125.3,66.3,125.2,67.3,124.5,68z M123.8,62.5
				c-0.2-0.2-0.5-0.3-0.9-0.3c-0.4,0-0.7,0.1-0.9,0.3c-0.6,0.6-0.6,1.6-0.6,2.5c0,0.9,0,1.9,0.6,2.5c0.2,0.2,0.5,0.3,0.9,0.3
				c0.4,0,0.7-0.1,0.9-0.3c0.6-0.6,0.6-1.6,0.6-2.5C124.4,64.1,124.4,63,123.8,62.5z"/>
			<path class="st5" d="M130.5,68c-0.3,0.3-0.8,0.6-1.5,0.6c-0.7,0-1.2-0.2-1.5-0.6c-0.7-0.7-0.8-1.7-0.8-3c0-1.3,0.1-2.3,0.8-3
				c0.3-0.3,0.8-0.6,1.5-0.6c0.7,0,1.2,0.2,1.5,0.6c0.7,0.7,0.8,1.7,0.8,3C131.3,66.3,131.2,67.3,130.5,68z M129.8,62.5
				c-0.2-0.2-0.5-0.3-0.9-0.3c-0.4,0-0.7,0.1-0.9,0.3c-0.6,0.6-0.6,1.6-0.6,2.5c0,0.9,0,1.9,0.6,2.5c0.2,0.2,0.5,0.3,0.9,0.3
				c0.4,0,0.7-0.1,0.9-0.3c0.6-0.6,0.6-1.6,0.6-2.5C130.4,64.1,130.4,63,129.8,62.5z"/>
			<path class="st5" d="M136.6,68c-0.4,0.4-0.9,0.6-1.7,0.6c-0.7,0-1.2-0.2-1.6-0.6c-0.4-0.4-0.6-0.8-0.6-1.5h0.9
				c0,0.4,0.1,0.7,0.4,1c0.2,0.2,0.5,0.4,0.9,0.4c0.4,0,0.8-0.1,1-0.4c0.2-0.2,0.3-0.5,0.3-0.9c0-0.8-0.6-1.3-1.4-1.3h-0.4v-0.8h0.4
				c0.8,0,1.3-0.4,1.3-1.2c0-0.3-0.1-0.6-0.3-0.8c-0.2-0.2-0.5-0.3-0.8-0.3c-0.4,0-0.6,0.1-0.8,0.3c-0.3,0.2-0.4,0.6-0.4,1h-0.9
				c0-0.7,0.3-1.2,0.7-1.5c0.4-0.3,0.9-0.5,1.5-0.5c0.6,0,1.1,0.2,1.5,0.5c0.3,0.3,0.6,0.8,0.6,1.4c0,0.6-0.5,1.3-1,1.6
				c0.7,0.2,1.2,1,1.2,1.7C137.1,67.1,136.9,67.6,136.6,68z"/>
		</g>
		<rect x="75.1" y="90.9" class="st1" width="1.7" height="15.6"/>
	</g>
	<rect x="145.5" y="105.8" class="st0" width="11.5" height="1.7"/>
</g>
</svg>
