<?xml version="1.0" encoding="utf-8"?>
<!-- Generator: Adobe Illustrator 21.1.0, SVG Export Plug-In . SVG Version: 6.00 Build 0)  -->
<svg version="1.1" id="Layer_1" xmlns="http://www.w3.org/2000/svg" xmlns:xlink="http://www.w3.org/1999/xlink" x="0px" y="0px"
	 viewBox="0 0 220 163" style="enable-background:new 0 0 220 163;" xml:space="preserve">
<style type="text/css">
	.st0{clip-path:url(#SVGID_2_);}
	.st1{fill:#8D734A;stroke:#8D734A;stroke-width:0.3;stroke-miterlimit:10;}
	.st2{fill:#8D734A;}
	.st3{fill:#1B1B1B;}
	.st4{fill:none;stroke:#8D734A;stroke-width:0.3;stroke-miterlimit:10;}
	.st5{fill:#1B1B1B;stroke:#8D734A;stroke-width:2.2;stroke-miterlimit:10;}
	.st6{display:none;}
	.st7{display:inline;}
	.st8{fill:none;stroke:#1B1B1B;stroke-width:0.5;stroke-miterlimit:10;}
	.st9{fill:#8D744A;}
</style>
<g>
	<g>
		<defs>
			<rect id="SVGID_1_" x="125" y="51.5" width="40" height="46.9"/>
		</defs>
		<clipPath id="SVGID_2_">
			<use xlink:href="#SVGID_1_"  style="overflow:visible;"/>
		</clipPath>
		<g class="st0">
			<path class="st1" d="M159.5,69c0.6-0.9,0.6-2,0.3-2.9c-0.3-1-1.2-2.1-2.5-2.3c0.4-1.3,0-2.5-0.8-3.3c-0.7-0.8-1.9-1.4-3.2-1.1
				c-0.2-1.3-1.1-2.3-2.1-2.7c-1-0.4-2.3-0.5-3.4,0.3c-0.7-1.1-1.9-1.7-3-1.7c-1.1,0-2.3,0.5-3,1.7c-1.1-0.8-2.4-0.7-3.4-0.3
				c-1,0.4-1.9,1.4-2.1,2.7c-1.3-0.3-2.5,0.3-3.2,1.1c-0.7,0.8-1.2,2.1-0.8,3.3c-1.3,0.3-2.2,1.3-2.5,2.3c-0.3,0.9-0.2,2,0.3,2.9
				c-1,0.4-1.8,1.5-1.8,2.6c0,1.2,0.8,2.3,1.9,2.7l3.8,26.2c0.1,0.4,0.4,0.7,0.8,0.7h5h0h0h9.9l0,0h0h5c0.4,0,0.7-0.3,0.8-0.7
				l3.8-26.2c1.1-0.4,1.9-1.5,1.9-2.7C161.3,70.5,160.6,69.4,159.5,69z M131.4,66.6c0.2-0.7,1-1.5,2.2-1.3c0.3,0.1,0.7-0.1,0.8-0.4
				c0.2-0.3,0.1-0.7-0.1-0.9c-0.8-0.9-0.5-2,0-2.5c0.5-0.6,1.5-1,2.5-0.3c0.3,0.2,0.6,0.2,0.9,0c0.3-0.2,0.4-0.5,0.3-0.9
				c-0.4-1.2,0.3-2,1.1-2.3c0.7-0.3,1.8-0.3,2.4,0.8c0.2,0.3,0.5,0.4,0.8,0.4c0.3-0.1,0.6-0.3,0.6-0.7c0.2-1.2,1.1-1.7,1.9-1.7
				c0.8,0,1.7,0.4,1.9,1.7c0,0.3,0.3,0.6,0.6,0.7c0.3,0.1,0.7-0.1,0.8-0.4c0.6-1.1,1.7-1.1,2.4-0.8c0.7,0.3,1.4,1.1,1.1,2.3
				c-0.1,0.3,0,0.7,0.3,0.9c0.3,0.2,0.6,0.2,0.9,0c1-0.7,2-0.3,2.5,0.3c0.5,0.6,0.8,1.6,0,2.5c-0.2,0.3-0.3,0.6-0.1,0.9
				c0.2,0.3,0.5,0.4,0.8,0.4c1.2-0.2,1.9,0.5,2.2,1.3c0.2,0.7,0.1,1.7-0.9,2.2c0,0-13.3,0-17.3,0h-1.1h-6.8
				C131.3,68.3,131.2,67.3,131.4,66.6z M135.6,99.7L132,74.5h4.5l1.8,25.1H135.6z M143.6,99.7h-3.8l-1.8-25.1h4L143.6,99.7z
				 M149.1,99.7h-4l-1.6-25.1h7.3L149.1,99.7z M154.2,99.7h-3.5l1.8-25.1h5.4L154.2,99.7z M158.7,72.9
				C158.7,72.9,158.7,72.9,158.7,72.9c0,0-0.1,0-0.1,0c0,0-0.1,0-0.1,0h-13.6h-13.6c-0.1,0-0.1,0-0.2,0c0,0,0,0,0,0
				c-0.6-0.1-1.1-0.6-1.1-1.3c0-0.7,0.6-1.3,1.3-1.3h0.7h7h1.1h17.5h0.8c0.7,0,1.3,0.6,1.3,1.3C159.8,72.3,159.3,72.8,158.7,72.9z"
				/>
		</g>
	</g>
	<g>
		<rect x="92.4" y="97.4" class="st2" width="72.6" height="2.2"/>
	</g>
	<g>
		<g>
			<g>
				<path class="st3" d="M150.6,100c0.1,1.2,1,2,2.1,2h13.5c1.1,0,2-0.8,2.1-2l1.5-27.7h-20.5L150.6,100z M166.9,68.2
					c-0.1,0-0.1,0-0.2,0h-19v2.5h23.5v-2.5H166.9z"/>
			</g>
		</g>
		<g>
			<g>
				<path class="st2" d="M159.8,86.4c0.5,0,0.8-0.3,0.8-0.8c0-0.5-0.3-0.8-0.8-0.8c-0.8,0-1.5-0.7-1.5-1.5c0-0.5-0.3-0.8-0.8-0.8
					c-0.5,0-0.8,0.3-0.8,0.8C156.7,85,158.1,86.4,159.8,86.4z M172,66.6h-8.8l1.4-6.7c0.2-0.5,0.5-0.8,0.9-1c0.5-0.1,1,0,1.3,0.4
					l2.5,2.8c0.3,0.3,0.8,0.4,1.1,0.1c0.3-0.3,0.4-0.8,0.1-1.1l-2.5-2.8c-0.8-0.8-1.8-1.2-2.8-0.8c-1,0.3-1.8,1.1-2,2.2l-1.4,7
					h-14.7c-0.5,0-0.8,0.3-0.8,0.8v4.1c0,0.5,0.3,0.8,0.8,0.8h0.8l1.3,27.8c0.2,1.9,1.7,3.5,3.6,3.5h13.5c1.9,0,3.5-1.5,3.6-3.5
					l1.3-27.8h0.8c0.5,0,0.8-0.3,0.8-0.8v-4.1C172.8,66.9,172.5,66.6,172,66.6z M168.4,99.8c-0.1,1.2-1,2-2.1,2h-13.5
					c-1.1,0-2-0.8-2.1-2l-1.5-27.6h20.5L168.4,99.8z M171.2,70.7h-23.5v-2.5h19c0.1,0,0.1,0,0.2,0h4.4V70.7z M156.4,89
					c0.7,0.4,1.1,0.5,1.5,0.6c0.5,0.1,1,0.2,1.5,0.2c0.5,0,1-0.1,1.5-0.2c0.5-0.1,1.3-0.5,1.6-0.7c1.8-1.1,3-3,3-5.3
					c0-2.3-1.2-4.2-3.1-5.3c-0.4-0.3-0.8-0.4-1.5-0.6c-0.4-0.1-0.8-0.2-1.3-0.2c-0.1,0-0.2,0-0.2,0c-0.1,0-0.2,0-0.2,0
					c-0.4,0-0.9,0.1-1.3,0.2c-0.6,0.2-1.2,0.4-1.5,0.6c-1.8,1.1-3.1,3.1-3.1,5.3S154.6,87.9,156.4,89z M157.4,79.5
					c0.1,0,0.1,0,0.2,0c0.6-0.3,1.3-0.5,1.9-0.5c0.6,0,1.2,0.1,1.8,0.4c0.1,0,0.1,0.1,0.2,0.1c0,0,0.1,0.1,0.1,0.1
					c1.5,0.8,2.5,2.3,2.5,4.1c0,1.8-1.1,3.4-2.6,4.1c0,0,0,0,0,0c-0.1,0-0.1,0.1-0.2,0.1c-0.5,0.2-1.1,0.4-1.8,0.4
					c-0.7,0-1.3-0.2-1.9-0.5c0,0-0.1,0-0.2,0c-1.5-0.8-2.5-2.3-2.5-4.1C154.9,81.9,155.9,80.3,157.4,79.5z"/>
			</g>
			<g>
				<path class="st4" d="M159.8,86.4c0.5,0,0.8-0.3,0.8-0.8c0-0.5-0.3-0.8-0.8-0.8c-0.8,0-1.5-0.7-1.5-1.5c0-0.5-0.3-0.8-0.8-0.8
					c-0.5,0-0.8,0.3-0.8,0.8C156.7,85,158.1,86.4,159.8,86.4z M172,66.6h-8.8l1.4-6.7c0.2-0.5,0.5-0.8,0.9-1c0.5-0.1,1,0,1.3,0.4
					l2.5,2.8c0.3,0.3,0.8,0.4,1.1,0.1c0.3-0.3,0.4-0.8,0.1-1.1l-2.5-2.8c-0.8-0.8-1.8-1.2-2.8-0.8c-1,0.3-1.8,1.1-2,2.2l-1.4,7
					h-14.7c-0.5,0-0.8,0.3-0.8,0.8v4.1c0,0.5,0.3,0.8,0.8,0.8h0.8l1.3,27.8c0.2,1.9,1.7,3.5,3.6,3.5h13.5c1.9,0,3.5-1.5,3.6-3.5
					l1.3-27.8h0.8c0.5,0,0.8-0.3,0.8-0.8v-4.1C172.8,66.9,172.5,66.6,172,66.6z M168.4,99.8c-0.1,1.2-1,2-2.1,2h-13.5
					c-1.1,0-2-0.8-2.1-2l-1.5-27.6h20.5L168.4,99.8z M171.2,70.7h-23.5v-2.5h19c0.1,0,0.1,0,0.2,0h4.4V70.7z M156.4,89
					c0.7,0.4,1.1,0.5,1.5,0.6c0.5,0.1,1,0.2,1.5,0.2c0.5,0,1-0.1,1.5-0.2c0.5-0.1,1.3-0.5,1.6-0.7c1.8-1.1,3-3,3-5.3
					c0-2.3-1.2-4.2-3.1-5.3c-0.4-0.3-0.8-0.4-1.5-0.6c-0.4-0.1-0.8-0.2-1.3-0.2c-0.1,0-0.2,0-0.2,0c-0.1,0-0.2,0-0.2,0
					c-0.4,0-0.9,0.1-1.3,0.2c-0.6,0.2-1.2,0.4-1.5,0.6c-1.8,1.1-3.1,3.1-3.1,5.3S154.6,87.9,156.4,89z M157.4,79.5
					c0.1,0,0.1,0,0.2,0c0.6-0.3,1.3-0.5,1.9-0.5c0.6,0,1.2,0.1,1.8,0.4c0.1,0,0.1,0.1,0.2,0.1c0,0,0.1,0.1,0.1,0.1
					c1.5,0.8,2.5,2.3,2.5,4.1c0,1.8-1.1,3.4-2.6,4.1c0,0,0,0,0,0c-0.1,0-0.1,0.1-0.2,0.1c-0.5,0.2-1.1,0.4-1.8,0.4
					c-0.7,0-1.3-0.2-1.9-0.5c0,0-0.1,0-0.2,0c-1.5-0.8-2.5-2.3-2.5-4.1C154.9,81.9,155.9,80.3,157.4,79.5z"/>
			</g>
		</g>
	</g>
</g>
<g>
	<circle class="st5" cx="82.8" cy="81.1" r="35"/>
	<path class="st1" d="M108.9,50C109,50,109,50,108.9,50l1.4,0v0h1.6c1.1,0,2,0.9,2,2v4c0,0,0,0,0,0c0,0.6,0.4,1,1,1c0.6,0,1-0.4,1-1
		h0v-5c0-1.7-1.3-3-3-3h-0.7v0h-3.3v0c-0.6,0-1,0.4-1,1C107.9,49.5,108.4,50,108.9,50z"/>
	<path class="st1" d="M50.6,56.9c0.5,0,1-0.4,1-1c0,0,0,0,0,0V52c0-1.1,0.9-2,2-2h2.6v0h0.4c0,0,0,0,0,0c0.5,0,1-0.4,1-1
		c0-0.5-0.4-1-1-1v0h-3.3v0h-0.7c-1.6,0-3,1.3-3,3v5h0C49.6,56.5,50.1,56.9,50.6,56.9z"/>
	<path class="st1" d="M56.6,112.2L56.6,112.2l-3.3,0v0c-1-0.1-1.7-0.9-1.7-2v-3.9c0,0,0,0,0,0c0-0.5-0.4-1-1-1c-0.5,0-1,0.4-1,1h0v5
		c0,1.6,1.3,3,3,3h3.6v-0.1h0.4c0,0,0,0,0,0c0.5,0,1-0.4,1-1C57.6,112.7,57.2,112.2,56.6,112.2z"/>
	<path class="st1" d="M114.9,105.2c-0.6,0-1,0.4-1,1c0,0,0,0,0,0v4c0,1-0.7,1.8-1.7,2v0h-3.3v0c-0.6,0-1,0.4-1,1c0,0.6,0.4,1,1,1
		c0,0,0,0,0,0h1.4v0.1h2.6c1.7,0,3-1.3,3-3v-5h0C115.9,105.7,115.5,105.2,114.9,105.2z"/>
	<g class="st6">
		<g class="st7">
			<path class="st2" d="M77.8,60.4h-15v15h15V60.4z M75.3,72.9h-10v-10h10V72.9z M72.8,65.4h-5v5h5V65.4z M62.8,100.4h15v-15h-15
				V100.4z M65.3,87.9h10v10h-10V87.9z M67.8,95.4h5v-5h-5V95.4z M87.8,60.4v15h15v-15H87.8z M100.3,72.9h-10v-10h10V72.9z
				 M97.8,65.4h-5v5h5V65.4z M67.8,77.9h-5v5h7.5v-2.5h-2.5V77.9z M80.3,82.9v5h5v-5H80.3z M70.3,77.9v2.5h5v-2.5H70.3z M85.3,90.4
				h-5v2.5h2.5v2.5h2.5v-2.5V90.4z M77.8,77.9v2.5h-2.5v2.5h5v-5H77.8z M85.3,70.4h-2.5v5h2.5V70.4z M85.3,80.4v2.5h5v-5h-7.5v2.5
				H85.3z M82.8,75.4h-2.5v2.5h2.5V75.4z M85.3,100.4h5v-5h-5V100.4z M80.3,100.4h2.5v-5h-2.5V100.4z M87.8,87.9h-2.5v2.5h2.5V87.9z
				 M85.3,67.9v-5h-2.5v-2.5h-2.5v10h2.5v-2.5H85.3z M95.3,100.4v-5h-2.5v5H95.3z M92.8,90.4v2.5h5v-2.5H92.8z M90.3,95.4h2.5v-2.5
				h-2.5V95.4z M90.3,92.9v-2.5h-2.5v2.5H90.3z M97.8,85.4v2.5h2.5v2.5h2.5v-5h-2.5H97.8z M100.3,92.9h-2.5v7.5h5v-5h-2.5V92.9z
				 M87.8,85.4v2.5h7.5v-5h-5v2.5H87.8z M92.8,77.9v2.5h5v2.5h5v-5h-5H92.8z"/>
		</g>
		<g class="st7">
			<path class="st8" d="M77.8,60.4h-15v15h15V60.4z M75.3,72.9h-10v-10h10V72.9z M72.8,65.4h-5v5h5V65.4z M62.8,100.4h15v-15h-15
				V100.4z M65.3,87.9h10v10h-10V87.9z M67.8,95.4h5v-5h-5V95.4z M87.8,60.4v15h15v-15H87.8z M100.3,72.9h-10v-10h10V72.9z
				 M97.8,65.4h-5v5h5V65.4z M67.8,77.9h-5v5h7.5v-2.5h-2.5V77.9z M80.3,82.9v5h5v-5H80.3z M70.3,77.9v2.5h5v-2.5H70.3z M85.3,90.4
				h-5v2.5h2.5v2.5h2.5v-2.5V90.4z M77.8,77.9v2.5h-2.5v2.5h5v-5H77.8z M85.3,70.4h-2.5v5h2.5V70.4z M85.3,80.4v2.5h5v-5h-7.5v2.5
				H85.3z M82.8,75.4h-2.5v2.5h2.5V75.4z M85.3,100.4h5v-5h-5V100.4z M80.3,100.4h2.5v-5h-2.5V100.4z M87.8,87.9h-2.5v2.5h2.5V87.9z
				 M85.3,67.9v-5h-2.5v-2.5h-2.5v10h2.5v-2.5H85.3z M95.3,100.4v-5h-2.5v5H95.3z M92.8,90.4v2.5h5v-2.5H92.8z M90.3,95.4h2.5v-2.5
				h-2.5V95.4z M90.3,92.9v-2.5h-2.5v2.5H90.3z M97.8,85.4v2.5h2.5v2.5h2.5v-5h-2.5H97.8z M100.3,92.9h-2.5v7.5h5v-5h-2.5V92.9z
				 M87.8,85.4v2.5h7.5v-5h-5v2.5H87.8z M92.8,77.9v2.5h5v2.5h5v-5h-5H92.8z"/>
		</g>
	</g>
	<g>
		<g>
			<g>
				<g>
					<path class="st9" d="M64.5,73.8v4h4v-4H64.5z M68.5,79.9h-4v2h2v2h2v-2V79.9z M68.5,87.9h4v-4h-4V87.9z M64.5,87.9h2v-4h-2
						V87.9z M70.5,77.8h-2v2h2V77.8z M76.6,87.9v-4h-2v4H76.6z M74.5,79.9v2h4v-2H74.5z M72.5,83.9h2v-2h-2V83.9z M72.5,81.9v-2h-2
						v2H72.5z M78.6,75.8v2h2v2h2v-4h-2H78.6z M80.6,81.9h-2v6h4v-4h-2V81.9z M76.6,73.8h-4v2h-2v2h6.1V73.8z M102.3,83.9v-4h-4v4
						H102.3z M102.3,75.8h-2v-2h-2v2v2h4V75.8z M94.2,87.9h6.1v-2h-2v-2h-4V87.9z M96.3,77.8v2h2v-2H96.3z M88.2,77.8h4v-2h-4V77.8z
						 M86.2,73.8h-4v2h4V73.8z M92.2,73.8v2h2v-2H92.2z M94.2,75.8v2h2v-2H94.2z M84.2,77.8v4h2h2v-2h-2v-2H84.2z M96.3,81.9v-2
						h-6.1v4h4v-2H96.3z M88.2,83.9h-4v4h4h4v-2h-4V83.9z"/>
				</g>
			</g>
			<rect x="106.7" y="74.4" class="st9" width="2.6" height="14"/>
			<rect x="103.2" y="74.4" class="st9" width="2.6" height="14"/>
			<rect x="56.4" y="73.8" class="st9" width="3.2" height="14"/>
			<rect x="61.1" y="73.8" class="st9" width="1.6" height="14"/>
		</g>
	</g>
</g>
</svg>
