<?xml version="1.0" encoding="utf-8"?>
<!-- Generator: Adobe Illustrator 21.1.0, SVG Export Plug-In . SVG Version: 6.00 Build 0)  -->
<svg version="1.1" id="Layer_1" xmlns="http://www.w3.org/2000/svg" xmlns:xlink="http://www.w3.org/1999/xlink" x="0px" y="0px"
	 viewBox="0 0 220 163" style="enable-background:new 0 0 220 163;" xml:space="preserve">
<style type="text/css">
	.st0{fill:#1B1B1B;}
	.st1{fill:#8D734A;}
	.st2{clip-path:url(#SVGID_2_);}
	.st3{fill:#8D734A;stroke:#8D734A;stroke-width:0.25;stroke-miterlimit:10;}
	.st4{fill:#8D734A;stroke:#8D734A;stroke-width:0.5;stroke-miterlimit:10;}
	.st5{fill:#1B1B1B;stroke:#8D734A;stroke-width:2.2;stroke-miterlimit:10;}
	.st6{fill:#8D734A;stroke:#8D734A;stroke-width:0.3;stroke-miterlimit:10;}
	.st7{display:none;}
	.st8{display:inline;}
	.st9{fill:none;stroke:#1B1B1B;stroke-width:0.5;stroke-miterlimit:10;}
	.st10{fill:#8D744A;}
</style>
<g>
	<g>
		<path class="st0" d="M144.9,63.1c-3.8,0-6.9-3.1-6.9-6.9c0-3.8,3.1-6.9,6.9-6.9c3.8,0,6.9,3.1,6.9,6.9
			C151.8,60.1,148.7,63.1,144.9,63.1z"/>
		<path class="st1" d="M144.9,47.7c-4.7,0-8.5,3.8-8.5,8.5c0,4.7,3.8,8.5,8.5,8.5c4.7,0,8.5-3.8,8.5-8.5
			C153.4,51.5,149.6,47.7,144.9,47.7z M144.9,62.7c-3.6,0-6.5-2.9-6.5-6.5c0-3.6,2.9-6.5,6.5-6.5c3.6,0,6.5,2.9,6.5,6.5
			C151.4,59.8,148.5,62.7,144.9,62.7z"/>
		<path class="st0" d="M128.7,64.7c0-0.8,0.6-1.4,1.4-1.4h29.6c0.8,0,1.4,0.6,1.4,1.4v39h-32.3V64.7z"/>
		<g>
			<defs>
				<rect id="SVGID_1_" x="124" y="59.4" width="41.5" height="39.3"/>
			</defs>
			<clipPath id="SVGID_2_">
				<use xlink:href="#SVGID_1_"  style="overflow:visible;"/>
			</clipPath>
			<g class="st2">
				<path class="st0" d="M136.5,106.1v0.3c0,0,0,0.1-0.1,0.1l-7.7,9.4v-9.9V74.3v-9.9l7.7,9.4c0,0,0,0.1,0.1,0.1v0.3V106.1z"/>
				<path class="st0" d="M153.3,74.3v-0.3c0,0,0-0.1,0.1-0.1l7.7-9.4v9.9v31.8v9.9l-7.7-9.4c0,0,0-0.1-0.1-0.1v-0.3V74.3z"/>
				<path class="st3" d="M138,72.7L138,72.7L138,72.7L138,72.7l-8.1-9.8l0,0c-0.2-0.2-0.4-0.3-0.6-0.3H129c-0.3,0-0.6,0-0.9,0
					c-0.1,0-0.2,0-0.3,0c-0.5,0-0.9,0.4-0.9,0.9v10.8v31.8v10.8c0,0.5,0.4,0.9,0.9,0.9c0.1,0,0.2,0,0.3,0c0.3,0,0.6,0,0.9,0h0.2
					c0.2,0,0.5-0.1,0.6-0.3l0,0l8.1-9.8h0l0,0l0,0c0.1-0.2,0.2-0.4,0.2-0.6V107v-0.9V74.3v-0.9v-0.1C138.2,73.1,138.1,72.8,138,72.7
					z M136.5,106.1v0.3c0,0,0,0.1-0.1,0.1l-7.7,9.4v-9.9V74.3v-9.9l7.7,9.4c0,0,0,0.1,0.1,0.1v0.3V106.1z"/>
				<path class="st3" d="M151.6,73.3L151.6,73.3v1v31.8v0.9v0.1c0,0.2,0.1,0.4,0.2,0.6l0,0l0,0h0l8.1,9.8l0,0
					c0.2,0.2,0.4,0.3,0.6,0.3h0.2c0.3,0,0.6,0,0.9,0c0.1,0,0.2,0,0.3,0c0.5,0,0.9-0.4,0.9-0.9v-10.8V74.3V63.5
					c0-0.5-0.4-0.9-0.9-0.9c-0.1,0-0.2,0-0.3,0c-0.3,0-0.6,0-0.9,0h-0.2c-0.2,0-0.5,0.1-0.6,0.3l0,0l-8.1,9.8h0l0,0l0,0
					C151.6,72.8,151.6,73.1,151.6,73.3z M153.3,74.3v-0.3c0,0,0-0.1,0.1-0.1l7.7-9.4v9.9v31.8v9.9l-7.7-9.4c0,0,0-0.1-0.1-0.1v-0.3
					V74.3z"/>
			</g>
		</g>
		<path class="st3" d="M161.2,61.6h-32.7c-0.9,0-1.6,0.7-1.6,1.6v35.6h1.8v-34c0-0.8,0.6-1.4,1.4-1.4h29.6c0.8,0,1.4,0.6,1.4,1.4v34
			h1.8V63.2C162.8,62.3,162.1,61.6,161.2,61.6z"/>
		<path class="st4" d="M144.3,58.4l2.1-2.6c0.4-0.5,0.6-1,0.6-1.6c0-0.5-0.1-0.8-0.4-1.2c-0.4-0.6-1.1-0.9-1.9-0.9
			c-1.3,0-2.2,0.9-2.2,2.2v0.2h1.3v-0.2c0-0.9,0.6-1.1,1-1.1c0.6,0,0.9,0.3,0.9,0.9c0,0.3-0.1,0.6-0.3,0.9l-2.9,3.5v1h4.6v-1.2
			H144.3z"/>
		<rect x="93" y="98" class="st1" width="70" height="2.2"/>
		<path class="st0" d="M173.5,104.2h-4.2l1.4-17.7h1.4L173.5,104.2z M171.4,80.5c1.3,0,2.3,1,2.3,2.3c0,1.3-1,2.3-2.3,2.3
			c-1.3,0-2.3-1-2.3-2.3C169.1,81.5,170.1,80.5,171.4,80.5z M142.4,82.8c0-1.3,1-2.3,2.3-2.3c1.3,0,2.3,1,2.3,2.3
			c0,1.3-1,2.3-2.3,2.3C143.4,85.1,142.4,84,142.4,82.8z M143.9,86.5h1.4l1.4,17.7h-4.2L143.9,86.5z M147.4,105.5h0.8v2.5H141v-2.5
			h0.8H147.4z M175,108h-7.2v-2.5h0.8h5.6h0.8V108z"/>
		<path class="st0" d="M173.5,104.2h-4.2l1.4-17.7h1.4L173.5,104.2z M171.4,80.5c1.3,0,2.3,1,2.3,2.3c0,1.3-1,2.3-2.3,2.3
			c-1.3,0-2.3-1-2.3-2.3C169.1,81.5,170.1,80.5,171.4,80.5z M142.4,82.8c0-1.3,1-2.3,2.3-2.3c1.3,0,2.3,1,2.3,2.3
			c0,1.3-1,2.3-2.3,2.3C143.4,85.1,142.4,84,142.4,82.8z M143.9,86.5h1.4l1.4,17.7h-4.2L143.9,86.5z M147.4,105.5h0.8v2.5H141v-2.5
			h0.8H147.4z M175,108h-7.2v-2.5h0.8h5.6h0.8V108z"/>
		<g>
			<g>
				<path class="st0" d="M173.5,104.2h-4.2l1.4-17.7h1.4L173.5,104.2z M171.4,80.5c1.3,0,2.3,1,2.3,2.3c0,1.3-1,2.3-2.3,2.3
					c-1.3,0-2.3-1-2.3-2.3C169.1,81.5,170.1,80.5,171.4,80.5z M142.4,82.8c0-1.3,1-2.3,2.3-2.3c1.3,0,2.3,1,2.3,2.3
					c0,1.3-1,2.3-2.3,2.3C143.4,85.1,142.4,84,142.4,82.8z M143.9,86.5h1.4l1.4,17.7h-4.2L143.9,86.5z M147.4,105.5h0.8v2.5H141
					v-2.5h0.8H147.4z M175,108h-7.2v-2.5h0.8h5.6h0.8V108z"/>
			</g>
			<path class="st4" d="M169.6,86l-0.3,1.5c-3.1,2.7-7.2,4.1-11.3,4.1c-4.1,0-8.2-1.5-11.3-4.1l-0.3-1.5c0.4-0.2,0.8-0.4,1.2-1
				c0.5-0.7,0.8-1.4,0.8-2.2c0-2.1-1.7-3.8-3.8-3.8c-2.1,0-3.8,1.7-3.8,3.8c0,1.2,0.6,2.4,1.6,3.1l-1.4,18.2h-0.8
				c-0.4,0-0.8,0.3-0.8,0.8v3.9c0,0.4,0.3,0.8,0.8,0.8h8.6c0.4,0,0.8-0.3,0.8-0.8v-3.9c0-0.4-0.3-0.8-0.8-0.8h-0.8l-1.2-14.6
				c3.5,2.5,7.4,3.5,11.1,3.5c3.7,0,7.6-1,11.1-3.5l-1.2,14.6h-0.8c-0.4,0-0.8,0.3-0.8,0.8v3.9c0,0.4,0.3,0.8,0.8,0.8h8.6
				c0.4,0,0.8-0.3,0.8-0.8v-3.9c0-0.4-0.3-0.8-0.8-0.8h-0.8l-1.4-17.6l0-0.6c1-0.7,1.6-1.9,1.6-3.1c0-2.1-1.7-3.8-3.8-3.8
				c-2.1,0-3.8,1.7-3.8,3.8c0,0.8,0.3,1.6,0.8,2.2C168.7,85.5,169.1,85.8,169.6,86z M173.5,104.2h-4.2l1.4-17.7h1.4L173.5,104.2z
				 M171.4,80.5c1.3,0,2.3,1,2.3,2.3c0,1.3-1,2.3-2.3,2.3c-1.3,0-2.3-1-2.3-2.3C169.1,81.5,170.1,80.5,171.4,80.5z M142.4,82.8
				c0-1.3,1-2.3,2.3-2.3c1.3,0,2.3,1,2.3,2.3c0,1.3-1,2.3-2.3,2.3C143.4,85.1,142.4,84,142.4,82.8z M143.9,86.5h1.4l1.4,17.7h-4.2
				L143.9,86.5z M147.4,105.5h0.8v2.5H141v-2.5h0.8H147.4z M175,108h-7.2v-2.5h0.8h5.6h0.8V108z"/>
		</g>
	</g>
	<g>
		<circle class="st5" cx="78.8" cy="80.1" r="35"/>
		<path class="st6" d="M104.9,49C105,49,105,49,104.9,49l1.4,0v0h1.6c1.1,0,2,0.9,2,2v4c0,0,0,0,0,0c0,0.6,0.4,1,1,1
			c0.6,0,1-0.4,1-1h0v-5c0-1.7-1.3-3-3-3h-0.7v0h-3.3v0c-0.6,0-1,0.4-1,1C103.9,48.5,104.4,49,104.9,49z"/>
		<path class="st6" d="M46.6,55.9c0.5,0,1-0.4,1-1c0,0,0,0,0,0V51c0-1.1,0.9-2,2-2h2.6v0h0.4c0,0,0,0,0,0c0.5,0,1-0.4,1-1
			c0-0.5-0.4-1-1-1v0h-3.3v0h-0.7c-1.6,0-3,1.3-3,3v5h0C45.6,55.5,46.1,55.9,46.6,55.9z"/>
		<path class="st6" d="M52.6,111.2L52.6,111.2l-3.3,0v0c-1-0.1-1.7-0.9-1.7-2v-3.9c0,0,0,0,0,0c0-0.5-0.4-1-1-1c-0.5,0-1,0.4-1,1h0
			v5c0,1.6,1.3,3,3,3h3.6v-0.1h0.4c0,0,0,0,0,0c0.5,0,1-0.4,1-1C53.6,111.7,53.2,111.2,52.6,111.2z"/>
		<path class="st6" d="M110.9,104.2c-0.6,0-1,0.4-1,1c0,0,0,0,0,0v4c0,1-0.7,1.8-1.7,2v0h-3.3v0c-0.6,0-1,0.4-1,1c0,0.6,0.4,1,1,1
			c0,0,0,0,0,0h1.4v0.1h2.6c1.7,0,3-1.3,3-3v-5h0C111.9,104.7,111.5,104.2,110.9,104.2z"/>
		<g class="st7">
			<g class="st8">
				<path class="st1" d="M73.8,59.4h-15v15h15V59.4z M71.3,71.9h-10v-10h10V71.9z M68.8,64.4h-5v5h5V64.4z M58.8,99.4h15v-15h-15
					V99.4z M61.3,86.9h10v10h-10V86.9z M63.8,94.4h5v-5h-5V94.4z M83.8,59.4v15h15v-15H83.8z M96.3,71.9h-10v-10h10V71.9z
					 M93.8,64.4h-5v5h5V64.4z M63.8,76.9h-5v5h7.5v-2.5h-2.5V76.9z M76.3,81.9v5h5v-5H76.3z M66.3,76.9v2.5h5v-2.5H66.3z M81.3,89.4
					h-5v2.5h2.5v2.5h2.5v-2.5V89.4z M73.8,76.9v2.5h-2.5v2.5h5v-5H73.8z M81.3,69.4h-2.5v5h2.5V69.4z M81.3,79.4v2.5h5v-5h-7.5v2.5
					H81.3z M78.8,74.4h-2.5v2.5h2.5V74.4z M81.3,99.4h5v-5h-5V99.4z M76.3,99.4h2.5v-5h-2.5V99.4z M83.8,86.9h-2.5v2.5h2.5V86.9z
					 M81.3,66.9v-5h-2.5v-2.5h-2.5v10h2.5v-2.5H81.3z M91.3,99.4v-5h-2.5v5H91.3z M88.8,89.4v2.5h5v-2.5H88.8z M86.3,94.4h2.5v-2.5
					h-2.5V94.4z M86.3,91.9v-2.5h-2.5v2.5H86.3z M93.8,84.4v2.5h2.5v2.5h2.5v-5h-2.5H93.8z M96.3,91.9h-2.5v7.5h5v-5h-2.5V91.9z
					 M83.8,84.4v2.5h7.5v-5h-5v2.5H83.8z M88.8,76.9v2.5h5v2.5h5v-5h-5H88.8z"/>
			</g>
			<g class="st8">
				<path class="st9" d="M73.8,59.4h-15v15h15V59.4z M71.3,71.9h-10v-10h10V71.9z M68.8,64.4h-5v5h5V64.4z M58.8,99.4h15v-15h-15
					V99.4z M61.3,86.9h10v10h-10V86.9z M63.8,94.4h5v-5h-5V94.4z M83.8,59.4v15h15v-15H83.8z M96.3,71.9h-10v-10h10V71.9z
					 M93.8,64.4h-5v5h5V64.4z M63.8,76.9h-5v5h7.5v-2.5h-2.5V76.9z M76.3,81.9v5h5v-5H76.3z M66.3,76.9v2.5h5v-2.5H66.3z M81.3,89.4
					h-5v2.5h2.5v2.5h2.5v-2.5V89.4z M73.8,76.9v2.5h-2.5v2.5h5v-5H73.8z M81.3,69.4h-2.5v5h2.5V69.4z M81.3,79.4v2.5h5v-5h-7.5v2.5
					H81.3z M78.8,74.4h-2.5v2.5h2.5V74.4z M81.3,99.4h5v-5h-5V99.4z M76.3,99.4h2.5v-5h-2.5V99.4z M83.8,86.9h-2.5v2.5h2.5V86.9z
					 M81.3,66.9v-5h-2.5v-2.5h-2.5v10h2.5v-2.5H81.3z M91.3,99.4v-5h-2.5v5H91.3z M88.8,89.4v2.5h5v-2.5H88.8z M86.3,94.4h2.5v-2.5
					h-2.5V94.4z M86.3,91.9v-2.5h-2.5v2.5H86.3z M93.8,84.4v2.5h2.5v2.5h2.5v-5h-2.5H93.8z M96.3,91.9h-2.5v7.5h5v-5h-2.5V91.9z
					 M83.8,84.4v2.5h7.5v-5h-5v2.5H83.8z M88.8,76.9v2.5h5v2.5h5v-5h-5H88.8z"/>
			</g>
		</g>
		<g>
			<g>
				<g>
					<g>
						<path class="st10" d="M60.5,72.8v4h4v-4H60.5z M64.5,78.9h-4v2h2v2h2v-2V78.9z M64.5,86.9h4v-4h-4V86.9z M60.5,86.9h2v-4h-2
							V86.9z M66.5,76.8h-2v2h2V76.8z M72.6,86.9v-4h-2v4H72.6z M70.5,78.9v2h4v-2H70.5z M68.5,82.9h2v-2h-2V82.9z M68.5,80.9v-2h-2
							v2H68.5z M74.6,74.8v2h2v2h2v-4h-2H74.6z M76.6,80.9h-2v6h4v-4h-2V80.9z M72.6,72.8h-4v2h-2v2h6.1V72.8z M98.3,82.9v-4h-4v4
							H98.3z M98.3,74.8h-2v-2h-2v2v2h4V74.8z M90.2,86.9h6.1v-2h-2v-2h-4V86.9z M92.3,76.8v2h2v-2H92.3z M84.2,76.8h4v-2h-4V76.8z
							 M82.2,72.8h-4v2h4V72.8z M88.2,72.8v2h2v-2H88.2z M90.2,74.8v2h2v-2H90.2z M80.2,76.8v4h2h2v-2h-2v-2H80.2z M92.3,80.9v-2
							h-6.1v4h4v-2H92.3z M84.2,82.9h-4v4h4h4v-2h-4V82.9z"/>
					</g>
				</g>
				<rect x="102.6" y="73.4" class="st10" width="2.6" height="14"/>
				<rect x="99.2" y="73.4" class="st10" width="2.6" height="14"/>
				<rect x="52.4" y="72.8" class="st10" width="3.2" height="14"/>
				<rect x="57.1" y="72.8" class="st10" width="1.6" height="14"/>
			</g>
		</g>
	</g>
</g>
</svg>
