<?xml version="1.0" encoding="utf-8"?>
<!-- Generator: Adobe Illustrator 21.1.0, SVG Export Plug-In . SVG Version: 6.00 Build 0)  -->
<svg version="1.1" id="Layer_1" xmlns="http://www.w3.org/2000/svg" xmlns:xlink="http://www.w3.org/1999/xlink" x="0px" y="0px"
	 viewBox="0 0 220 163" style="enable-background:new 0 0 220 163;" xml:space="preserve">
<style type="text/css">
	.st0{fill-rule:evenodd;clip-rule:evenodd;fill:#8D744A;}
	.st1{fill:#8D744A;}
	.st2{display:none;}
	.st3{display:inline;fill:#FFFFFF;}
	.st4{display:inline;}
	.st5{clip-path:url(#SVGID_2_);}
	.st6{display:inline;fill:#8D744A;}
	.st7{display:inline;fill-rule:evenodd;clip-rule:evenodd;fill:#8D744A;}
	.st8{display:inline;clip-path:url(#SVGID_2_);}
	.st9{display:none;clip-path:url(#SVGID_4_);}
	.st10{clip-path:url(#SVGID_4_);}
</style>
<g>
	<g>
		<g>
			<circle class="st0" cx="92.5" cy="109.1" r="2.3"/>
			<path class="st0" d="M74.1,103.4h33.6V54.5H74.1V103.4z M75.6,56.1h30.6v45.6H75.6V56.1z"/>
			<path class="st0" d="M107.9,45.9H74.1c-2.5,0-4.5,2-4.5,4.5v62.4c0,2.5,2,4.5,4.5,4.5h33.8c2.5,0,4.5-2,4.5-4.5V50.3
				C112.3,47.9,110.3,45.9,107.9,45.9z M110.6,112.3c0,1.7-1.4,3.1-3.1,3.1H74.5c-1.7,0-3.1-1.4-3.1-3.1V50.7c0-1.7,1.4-3.1,3.1-3.1
				h32.9c1.7,0,3.1,1.4,3.1,3.1V112.3z"/>
			<path class="st1" d="M96.3,50.3H86.1c-0.6,0-1,0.5-1,1c0,0.6,0.5,1,1,1h10.2c0.6,0,1-0.5,1-1C97.3,50.8,96.9,50.3,96.3,50.3z"/>
		</g>
	</g>
	<g class="st2">
		<path class="st3" d="M134,122.7c0.7,0,1.3-0.6,1.3-1.3c0-0.7-0.6-1.3-1.3-1.3l-15,0c-0.7,0-1.3,0.6-1.3,1.3c0,0.4,0.1,0.7,0.4,0.9
			c0.2,0.2,0.6,0.4,1,0.4L134,122.7z"/>
		<path class="st3" d="M117.6,128.8c0,0.4,0.1,0.7,0.4,0.9c0.2,0.2,0.6,0.4,1,0.4l15,0c0.7,0,1.3-0.6,1.3-1.3c0-0.7-0.6-1.3-1.3-1.3
			l-15,0C118.2,127.5,117.6,128.1,117.6,128.8z"/>
		<path class="st3" d="M150,129.1c-0.3-0.3-0.6-0.4-1-0.4l-1.8,0c-1.8,0-3.4-1.8-3.4-3.8c0-1,0.3-1.8,0.8-2.5
			c0.1-0.1,0.1-0.2,0.2-0.3c0.1-0.1,0.1-0.1,0.2-0.2c0.6-0.5,1.3-0.8,2.1-0.8l1.9,0c0.3,0,0.5-0.1,0.8-0.3c0.1,0,0.1-0.1,0.2-0.1
			c0.3-0.3,0.4-0.6,0.4-1l0-5.1c0-1-0.3-1.9-0.8-2.7c0-0.1-0.1-0.1-0.1-0.2c-0.1-0.2-0.3-0.3-0.4-0.5c0,0,0,0,0-0.1
			c-0.1-0.1-0.2-0.1-0.2-0.2c-0.1-0.1-0.3-0.2-0.4-0.3c0,0-0.1,0-0.1-0.1c-0.7-0.4-1.4-0.7-2.2-0.7l-38.9,0c-1.1,0-2.2,0.5-3,1.3
			c0,0,0,0,0,0c0,0,0,0,0,0c-0.9,0.9-1.4,2.1-1.4,3.4v5.1c0,0.4,0.1,0.7,0.4,0.9c0.3,0.3,0.6,0.4,1,0.4l1.8,0c1.8,0,3.4,1.8,3.4,3.8
			c0,1-0.3,1.8-0.8,2.5c-0.1,0.1-0.1,0.2-0.2,0.3c-0.1,0.1-0.1,0.1-0.2,0.2c-0.6,0.5-1.3,0.8-2.1,0.8l-1.8,0c-0.3,0-0.6,0.1-0.8,0.3
			c-0.1,0-0.1,0.1-0.2,0.1c-0.3,0.3-0.4,0.6-0.4,1l0,5.1c0,1,0.3,1.9,0.8,2.7c0,0.1,0.1,0.1,0.1,0.2c0.1,0.2,0.3,0.4,0.4,0.5
			c0,0,0,0,0.1,0.1c0.1,0.1,0.2,0.1,0.2,0.2c0.1,0.1,0.3,0.2,0.4,0.3c0,0,0.1,0,0.1,0c0.7,0.5,1.4,0.7,2.2,0.7l38.9,0
			c1.1,0,2.2-0.5,3-1.3c0,0,0,0,0,0c0,0,0,0,0,0c0.9-0.9,1.4-2.1,1.4-3.4l0-5.1C150.4,129.7,150.2,129.3,150,129.1z M147.6,135.2
			c0,0.6-0.2,1.1-0.6,1.5c-0.3,0.3-0.7,0.5-1.1,0.5l-38.9,0c-0.9,0-1.7-1-1.7-2l0-3.7l0.5,0c1.1,0,2.2-0.4,3.1-0.9
			c0.1,0,0.1-0.1,0.2-0.1c0.2-0.1,0.3-0.3,0.5-0.4c0.1-0.1,0.3-0.2,0.4-0.3c0,0,0-0.1,0.1-0.1c0.1-0.1,0.2-0.3,0.3-0.4
			c1-1.2,1.6-2.7,1.6-4.3c0-3.5-2.8-6.5-6-6.5l-0.5,0v-3.8c0-0.6,0.2-1.1,0.6-1.5c0.3-0.3,0.7-0.5,1.1-0.5l38.9,0c0.9,0,1.7,1,1.7,2
			l0,3.7l-0.5,0c-1.1,0-2.2,0.4-3.1,0.9c-0.1,0-0.1,0.1-0.2,0.1c-0.2,0.1-0.3,0.3-0.5,0.4c-0.1,0.1-0.3,0.2-0.4,0.3
			c0,0,0,0.1-0.1,0.1c-0.1,0.1-0.2,0.3-0.3,0.4c-1,1.2-1.6,2.7-1.6,4.3c0,3.5,2.8,6.5,6,6.5l0.5,0V135.2z"/>
	</g>
	<g class="st2">
		<defs>
			<rect id="SVGID_1_" x="115.1" y="105.6" width="49.5" height="38.5"/>
		</defs>
		<clipPath id="SVGID_2_" class="st4">
			<use xlink:href="#SVGID_1_"  style="overflow:visible;"/>
		</clipPath>
		<g class="st5">
			<path class="st1" d="M149.5,109.8l-50.5,0h-1.4c-0.6,0-1,0.5-1,1v0v3.2l0,0c0,0.6,0.5,1,1,1c0.1,0,0.2,0,0.3,0
				c0.6,0.1,1.1,0.7,1.1,1.3c0,0.8-0.6,1.4-1.4,1.4c-0.6,0-1,0.5-1,1v1v2.6v0c0,0.6,0.5,1,1,1c0.8,0,1.4,0.6,1.4,1.4
				c0,0.8-0.6,1.4-1.4,1.4c-0.6,0-1,0.5-1,1l0,0v2.6v1c0,0.6,0.5,1,1,1c0.8,0,1.4,0.6,1.4,1.4c0,0.7-0.5,1.2-1.1,1.3
				c-0.1,0-0.2,0-0.3,0c-0.6,0-1,0.5-1,1v0v3.2v0c0,0.6,0.5,1,1,1h51.9c0.6,0,1-0.5,1-1v0v-3.2v0c0-0.4-0.2-0.7-0.5-0.9
				c-0.2-0.1-0.3-0.1-0.5-0.1c-0.3,0-0.7-0.1-0.9-0.3c-0.3-0.3-0.5-0.6-0.5-1c0-0.3,0.1-0.6,0.3-0.8c0.3-0.3,0.6-0.5,1.1-0.5
				c0.6,0,1-0.5,1-1v-3.6l0,0c0-0.6-0.5-1-1-1c-0.4,0-0.8-0.2-1.1-0.5c-0.2-0.2-0.3-0.5-0.3-0.8c0-0.3,0.1-0.6,0.3-0.8
				c0.3-0.3,0.6-0.5,1.1-0.5c0.6,0,1-0.5,1-1l0,0v-3.6c0-0.6-0.5-1-1-1c-0.4,0-0.8-0.2-1.1-0.5c-0.2-0.2-0.3-0.5-0.3-0.8
				c0-0.4,0.2-0.8,0.5-1c0.2-0.2,0.6-0.3,0.9-0.3c0.2,0,0.3-0.1,0.5-0.1c0.3-0.2,0.5-0.5,0.5-0.9l0,0v-3.2v0
				C150.5,110.3,150,109.8,149.5,109.8z M148.5,113.2c-1.4,0.4-2.4,1.7-2.4,3.3l0,0v0c0,1.5,1,2.8,2.4,3.3v1.9
				c-1.4,0.4-2.4,1.7-2.4,3.3v0v0c0,1.5,1,2.8,2.4,3.3v1.9c-1.4,0.4-2.4,1.7-2.4,3.3v0l0,0c0,1.5,1,2.8,2.4,3.3v1.3H98.6v-1.3
				c1.4-0.4,2.4-1.7,2.4-3.3l0,0v0c0-1.5-1-2.8-2.4-3.3v-1.9c1.4-0.4,2.4-1.7,2.4-3.3v0v0c0-1.5-1-2.8-2.4-3.3v-1.9
				c1.4-0.4,2.4-1.7,2.4-3.3v0l0,0c0-1.5-1-2.8-2.4-3.3v-1.3h49.8V113.2z"/>
			<path class="st6" d="M148.4,119.2c1.2-0.2,2-1.3,2-2.5v-3.8c0-1.7-1.4-3.1-3.1-3.1H104c-0.8,0-1.6,0.3-2.2,0.9
				c-0.6,0.6-0.9,1.3-0.9,2.2v3.8c0,1.2,0.9,2.3,2,2.5c2.6,0.6,4.5,2.9,4.5,5.6c0,2.7-1.9,5.1-4.5,5.6c-1.2,0.2-2,1.3-2,2.5l0,3.8
				c0,0.8,0.3,1.6,0.9,2.2c0.6,0.6,1.3,0.9,2.2,0.9l43.4,0c1.7,0,3.1-1.4,3.1-3.1V133c0-1.2-0.9-2.3-2-2.5c-2.6-0.6-4.5-2.9-4.5-5.6
				C143.9,122.2,145.8,119.8,148.4,119.2z M147.9,132.4c0.4,0.1,0.7,0.4,0.7,0.9v3.6c0,0.7-0.9,1.4-1.7,1.4h-42.4
				c-0.7,0-1.7-0.6-1.7-1.4v-3.4c0-0.4,0.3-0.8,0.7-0.9c3.9-0.8,6.2-4.2,6.2-7.7c0-3.5-2.1-6.9-6.2-7.8c-0.4-0.1-0.7-0.4-0.7-0.9
				v-3.3c0-0.7,0.6-1.4,1.4-1.4h43.1c0.7,0,1.4,0.6,1.4,1.4v3.6c0,0.4-0.3,0.7-0.7,0.9c-3.9,1.2-5.9,4-5.9,7.5
				C142,128.4,144.5,131.5,147.9,132.4z"/>
			<path class="st7" d="M137.8,132.9v1.3h-5v-1.4h1.4v-1.4h1.4v1.4h0.9v-2.7h1.4L137.8,132.9L137.8,132.9z M136.4,127.8h1.4v1.4
				h-1.4V127.8z M136.4,124.2h1.4v1.3h-1.4V124.2z M130.5,115.5h7.3v7.3h-7.3V115.5z M131.4,121.9h5.5v-5.5h-5.5V121.9z
				 M132.7,117.8h2.7v2.8h-2.7V117.8z M127.7,121.5h1.4v1.4h-1.4V121.5z M127.7,119.2h1.4v1.4h-1.4V119.2z M127.7,115.5h1.4v2.7
				h-1.4V115.5z M121.8,124.2h4.6v1.4h-4.6V124.2z M119.1,115.5h7.3v7.3h-7.3V115.5z M120,121.9h5.5v-5.5H120V121.9z M121.4,117.8
				h2.7v2.8h-2.7V117.8z M120.4,124.2v1.4h-1.4v-1.4H120.4z M126.4,134.2h-7.3v-7.3h7.3V134.2z M125.5,127.8H120v5.5h5.5V127.8z
				 M124.1,132h-2.7v-2.8h2.7V132z M127.7,134.2v-7.3h1.4v1.8h1.4v1.3h-1.4v2.8h1.4v1.4L127.7,134.2z M130.5,131.5h1.4v1.4h-1.4
				V131.5z M131.9,124.2v1.4h-1.4v1.4h-1.4v-1.4h1.4v-1.4H131.9z M134.1,125.1h1.4v1.4h-1.4V125.1z M131.8,131.5v-1.4h1.4v1.4H131.8
				z M131.4,127.8h1.4v-1.4h1.4v1.4h1.4v1.4h-4.1V127.8z"/>
			<g>
				<path class="st6" d="M115.8,114.7h3.2V113l-3.2,0V114.7z M146.8,113l-3.2,0v1.7l3.2,0V113z M126.9,114.7h3.2V113l-3.2,0V114.7z
					 M146.8,135h-3.2v1.7l3.2,0L146.8,135z M110.2,113l0,1.7h3.2l0-1.7H110.2z M141.2,114.7V113l-3.2,0l0,1.7L141.2,114.7z
					 M135.6,114.7l0-1.7l-3.2,0l0,1.7H135.6z M107.9,113l-3.2,0v1.7h3.2V113z M126.4,121.1h-13.5c-0.5,0-0.9,0.4-0.9,0.9
					c0,0.5,0.4,0.9,0.9,0.9l13.5,0c0.2,0,0.4-0.1,0.6-0.2c0.2-0.2,0.2-0.4,0.3-0.6C127.3,121.5,126.9,121.1,126.4,121.1z
					 M121.3,114.7h3.2V113h-3.2V114.7z M119,135l-3.2,0v1.7h3.2V135z M110.2,135l0,1.7h3.2V135H110.2z M107.9,136.7l0-1.7l-3.2,0
					v1.7H107.9z M130.2,123.2c-0.1,0.4-0.1,0.9,0.2,1.2l1.1,1.5l-0.1,1.9c0,0.4,0.2,0.9,0.5,1.1c0.4,0.3,0.8,0.3,1.2,0.2l1.8-0.6
					l1.8,0.6c0.4,0.1,0.9,0.1,1.2-0.2c0.1,0,0.1-0.1,0.2-0.1c0.3-0.3,0.4-0.6,0.4-1l-0.1-1.9l1.1-1.5c0.3-0.3,0.3-0.8,0.2-1.2
					c-0.1-0.4-0.5-0.7-0.9-0.9l-1.8-0.5l-1.1-1.5c-0.2-0.4-0.7-0.6-1.1-0.6c-0.4,0-0.8,0.2-1.1,0.6l-1.1,1.5l-1.8,0.5
					C130.7,122.5,130.3,122.8,130.2,123.2z M132.1,123.9l1.4-0.4c0.3-0.1,0.5-0.3,0.7-0.5l0.8-1.2l0.8,1.2c0.2,0.3,0.4,0.4,0.7,0.5
					l1.4,0.4l-0.9,1.2c-0.2,0.2-0.3,0.5-0.3,0.8l0,1.5l-1.4-0.5c-0.3-0.1-0.6-0.1-0.9,0l-1.4,0.5l0-1.5c0-0.3-0.1-0.6-0.3-0.8
					L132.1,123.9z M121.3,135v1.7l3.2,0V135H121.3z M107.5,124.8c0,2.7-1.9,5-4.5,5.6c-1.2,0.2-2,1.3-2,2.5v3.8
					c0,1.7,1.4,3.1,3.1,3.1l43.3,0c0.8,0,1.6-0.3,2.2-0.9c0.6-0.6,0.9-1.3,0.9-2.2l0-3.8c0-1.2-0.9-2.3-2-2.5
					c-2.6-0.6-4.5-2.9-4.5-5.6c0-2.7,1.9-5,4.5-5.6c1.2-0.2,2-1.3,2-2.5l0-3.8c0-0.8-0.3-1.6-0.9-2.2c-0.6-0.6-1.3-0.9-2.2-0.9
					h-43.3c-1.7,0-3.1,1.4-3.1,3.1v3.8c0,1.2,0.9,2.3,2,2.5C105.5,119.8,107.5,122.1,107.5,124.8z M103.3,117.6
					c-0.4-0.1-0.7-0.4-0.7-0.9v-3.8c0-0.7,0.6-1.3,1.3-1.3l43.3,0c0.4,0,0.7,0.1,1,0.4c0.3,0.3,0.4,0.6,0.4,1v3.8
					c0,0.4-0.3,0.8-0.7,0.9c-1.4,0.3-2.7,1-3.7,2c-1.4,1.4-2.2,3.2-2.2,5.3c0,3.5,2.5,6.5,5.9,7.3c0.4,0.1,0.7,0.4,0.7,0.9l0,3.8
					c0,0.7-0.6,1.3-1.3,1.3h-43.3c-0.7,0-1.3-0.6-1.3-1.3v-3.8c0-0.4,0.3-0.8,0.7-0.9c3.4-0.7,5.9-3.8,5.9-7.3
					C109.2,121.3,106.7,118.3,103.3,117.6z M141.2,135H138v1.7l3.2,0V135z M135.6,135h-3.2l0,1.7h3.2L135.6,135z M118.5,128.6h7.9
					c0.2,0,0.5-0.1,0.6-0.3c0.2-0.2,0.3-0.4,0.2-0.6c0-0.5-0.4-0.9-0.9-0.9h-7.9c-0.5,0-0.9,0.4-0.9,0.9
					C117.6,128.2,118,128.6,118.5,128.6z M126.9,135l0,1.7l3.2,0V135L126.9,135z"/>
			</g>
		</g>
		<g class="st8">
			<path class="st1" d="M115.7,114.6h3.2v-1.7h-3.2V114.6z M146.8,112.9h-3.2v1.7l3.2,0L146.8,112.9z M126.8,114.6h3.2v-1.7h-3.2
				V114.6z M146.8,135.1l-3.2,0v1.7l3.2,0L146.8,135.1z M110.1,112.9l0,1.7h3.2l0-1.7H110.1z M141.3,114.6l0-1.7l-3.2,0l0,1.7
				L141.3,114.6z M135.7,114.6l0-1.7l-3.2,0l0,1.7L135.7,114.6z M107.7,112.9l-3.2,0v1.7h3.2V112.9z M126.4,121.1h-13.5
				c-0.5,0-0.9,0.4-0.9,0.9c0,0.5,0.4,0.9,0.9,0.9h13.5c0.2,0,0.4-0.1,0.6-0.3c0.2-0.2,0.3-0.4,0.3-0.6
				C127.2,121.5,126.8,121.1,126.4,121.1z M121.3,114.6l3.2,0v-1.7h-3.2V114.6z M118.9,135.1l-3.2,0v1.7h3.2V135.1z M110.1,135.1
				l0,1.7h3.2v-1.7H110.1z M107.7,136.8v-1.7l-3.2,0l0,1.7H107.7z M129.9,123.5c-0.1,0.4-0.1,0.9,0.2,1.2l1.1,1.5l-0.1,1.9
				c0,0.4,0.2,0.9,0.5,1.1c0.4,0.3,0.8,0.3,1.2,0.2l1.8-0.6l1.8,0.6c0.4,0.1,0.9,0.1,1.2-0.2c0.1,0,0.1-0.1,0.2-0.1
				c0.3-0.3,0.4-0.6,0.4-1l-0.1-1.9l1.1-1.5c0.3-0.3,0.3-0.8,0.2-1.2c-0.1-0.4-0.5-0.7-0.9-0.9l-1.8-0.5l-1.1-1.6
				c-0.2-0.4-0.7-0.6-1.1-0.6c-0.4,0-0.9,0.2-1.1,0.6l-1.1,1.5l-1.8,0.5C130.4,122.8,130.1,123.1,129.9,123.5z M131.8,124.1l1.4-0.4
				c0.3-0.1,0.5-0.3,0.7-0.5l0.8-1.2l0.8,1.2c0.2,0.3,0.4,0.4,0.7,0.5l1.4,0.4l-0.9,1.2c-0.2,0.2-0.3,0.5-0.3,0.9l0,1.5l-1.4-0.5
				c-0.3-0.1-0.6-0.1-0.9,0l-1.4,0.5l0-1.5c0-0.3-0.1-0.6-0.3-0.9L131.8,124.1z M121.3,135.1l0,1.7l3.2,0v-1.7H121.3z M107.3,124.9
				c0,2.7-1.9,5.1-4.6,5.6c-1.2,0.2-2,1.3-2,2.5v3.8c0,1.7,1.4,3.1,3.1,3.1l43.5,0c0.8,0,1.6-0.3,2.2-0.9c0.6-0.6,0.9-1.3,0.9-2.2
				l0-3.8c0-1.2-0.9-2.3-2-2.5c-2.6-0.6-4.6-2.9-4.6-5.6c0-2.7,1.9-5.1,4.6-5.6c1.2-0.2,2-1.3,2-2.5l0-3.8c0-0.8-0.3-1.6-0.9-2.2
				c-0.6-0.6-1.3-0.9-2.2-0.9h-43.5c-1.7,0-3.1,1.4-3.1,3.1v3.8c0,1.2,0.9,2.3,2,2.5C105.4,119.8,107.3,122.1,107.3,124.9z
				 M103.1,117.6c-0.4-0.1-0.7-0.4-0.7-0.9l0-3.8c0-0.7,0.6-1.4,1.4-1.4l43.5,0c0.4,0,0.7,0.1,1,0.4c0.3,0.3,0.4,0.6,0.4,1v3.8
				c0,0.4-0.3,0.8-0.7,0.9c-1.4,0.3-2.7,1-3.7,2c-1.4,1.4-2.2,3.2-2.2,5.3c0,3.5,2.5,6.6,5.9,7.3c0.4,0.1,0.7,0.4,0.7,0.9v3.8
				c0,0.7-0.6,1.4-1.4,1.4h-43.5c-0.8,0-1.4-0.6-1.4-1.4V133c0-0.4,0.3-0.8,0.7-0.9c3.4-0.7,5.9-3.8,5.9-7.3
				C109,121.3,106.6,118.3,103.1,117.6z M141.3,135.1H138v1.7l3.2,0V135.1z M135.7,135.1l-3.2,0l0,1.7l3.2,0L135.7,135.1z
				 M118.4,128.6h7.9c0.2,0,0.5-0.1,0.6-0.3c0.2-0.2,0.3-0.4,0.3-0.6c0-0.5-0.4-0.9-0.9-0.9h-7.9c-0.5,0-0.9,0.4-0.9,0.9
				C117.6,128.2,117.9,128.6,118.4,128.6z M126.8,135.1l0,1.7l3.2,0v-1.7L126.8,135.1z"/>
		</g>
	</g>
	<g>
		<defs>
			<rect id="SVGID_3_" x="115.1" y="64" width="49.5" height="38.5"/>
		</defs>
		<clipPath id="SVGID_4_">
			<use xlink:href="#SVGID_3_"  style="overflow:visible;"/>
		</clipPath>
		<g class="st9">
			<path class="st1" d="M149.5,109.8l-50.5,0h-1.4c-0.6,0-1,0.5-1,1v0v3.2l0,0c0,0.6,0.5,1,1,1c0.1,0,0.2,0,0.3,0
				c0.6,0.1,1.1,0.7,1.1,1.3c0,0.8-0.6,1.4-1.4,1.4c-0.6,0-1,0.5-1,1v1v2.6v0c0,0.6,0.5,1,1,1c0.8,0,1.4,0.6,1.4,1.4
				c0,0.8-0.6,1.4-1.4,1.4c-0.6,0-1,0.5-1,1l0,0v2.6v1c0,0.6,0.5,1,1,1c0.8,0,1.4,0.6,1.4,1.4c0,0.7-0.5,1.2-1.1,1.3
				c-0.1,0-0.2,0-0.3,0c-0.6,0-1,0.5-1,1v0v3.2v0c0,0.6,0.5,1,1,1h51.9c0.6,0,1-0.5,1-1v0v-3.2v0c0-0.4-0.2-0.7-0.5-0.9
				c-0.2-0.1-0.3-0.1-0.5-0.1c-0.3,0-0.7-0.1-0.9-0.3c-0.3-0.3-0.5-0.6-0.5-1c0-0.3,0.1-0.6,0.3-0.8c0.3-0.3,0.6-0.5,1.1-0.5
				c0.6,0,1-0.5,1-1v-3.6l0,0c0-0.6-0.5-1-1-1c-0.4,0-0.8-0.2-1.1-0.5c-0.2-0.2-0.3-0.5-0.3-0.8c0-0.3,0.1-0.6,0.3-0.8
				c0.3-0.3,0.6-0.5,1.1-0.5c0.6,0,1-0.5,1-1l0,0v-3.6c0-0.6-0.5-1-1-1c-0.4,0-0.8-0.2-1.1-0.5c-0.2-0.2-0.3-0.5-0.3-0.8
				c0-0.4,0.2-0.8,0.5-1c0.2-0.2,0.6-0.3,0.9-0.3c0.2,0,0.3-0.1,0.5-0.1c0.3-0.2,0.5-0.5,0.5-0.9l0,0v-3.2v0
				C150.5,110.3,150,109.8,149.5,109.8z M148.5,113.2c-1.4,0.4-2.4,1.7-2.4,3.3l0,0v0c0,1.5,1,2.8,2.4,3.3v1.9
				c-1.4,0.4-2.4,1.7-2.4,3.3v0v0c0,1.5,1,2.8,2.4,3.3v1.9c-1.4,0.4-2.4,1.7-2.4,3.3v0l0,0c0,1.5,1,2.8,2.4,3.3v1.3H98.6v-1.3
				c1.4-0.4,2.4-1.7,2.4-3.3l0,0v0c0-1.5-1-2.8-2.4-3.3v-1.9c1.4-0.4,2.4-1.7,2.4-3.3v0v0c0-1.5-1-2.8-2.4-3.3v-1.9
				c1.4-0.4,2.4-1.7,2.4-3.3v0l0,0c0-1.5-1-2.8-2.4-3.3v-1.3h49.8V113.2z"/>
			<path class="st6" d="M148.4,119.2c1.2-0.2,2-1.3,2-2.5v-3.8c0-1.7-1.4-3.1-3.1-3.1H104c-0.8,0-1.6,0.3-2.2,0.9
				c-0.6,0.6-0.9,1.3-0.9,2.2v3.8c0,1.2,0.9,2.3,2,2.5c2.6,0.6,4.5,2.9,4.5,5.6c0,2.7-1.9,5.1-4.5,5.6c-1.2,0.2-2,1.3-2,2.5l0,3.8
				c0,0.8,0.3,1.6,0.9,2.2c0.6,0.6,1.3,0.9,2.2,0.9l43.4,0c1.7,0,3.1-1.4,3.1-3.1V133c0-1.2-0.9-2.3-2-2.5c-2.6-0.6-4.5-2.9-4.5-5.6
				C143.9,122.2,145.8,119.8,148.4,119.2z M147.9,132.4c0.4,0.1,0.7,0.4,0.7,0.9v3.6c0,0.7-0.9,1.4-1.7,1.4h-42.4
				c-0.7,0-1.7-0.6-1.7-1.4v-3.4c0-0.4,0.3-0.8,0.7-0.9c3.9-0.8,6.2-4.2,6.2-7.7c0-3.5-2.1-6.9-6.2-7.8c-0.4-0.1-0.7-0.4-0.7-0.9
				v-3.3c0-0.7,0.6-1.4,1.4-1.4h43.1c0.7,0,1.4,0.6,1.4,1.4v3.6c0,0.4-0.3,0.7-0.7,0.9c-3.9,1.2-5.9,4-5.9,7.5
				C142,128.4,144.5,131.5,147.9,132.4z"/>
			<path class="st7" d="M137.8,132.9v1.3h-5v-1.4h1.4v-1.4h1.4v1.4h0.9v-2.7h1.4L137.8,132.9L137.8,132.9z M136.4,127.8h1.4v1.4
				h-1.4V127.8z M136.4,124.2h1.4v1.3h-1.4V124.2z M130.5,115.5h7.3v7.3h-7.3V115.5z M131.4,121.9h5.5v-5.5h-5.5V121.9z
				 M132.7,117.8h2.7v2.8h-2.7V117.8z M127.7,121.5h1.4v1.4h-1.4V121.5z M127.7,119.2h1.4v1.4h-1.4V119.2z M127.7,115.5h1.4v2.7
				h-1.4V115.5z M121.8,124.2h4.6v1.4h-4.6V124.2z M119.1,115.5h7.3v7.3h-7.3V115.5z M120,121.9h5.5v-5.5H120V121.9z M121.4,117.8
				h2.7v2.8h-2.7V117.8z M120.4,124.2v1.4h-1.4v-1.4H120.4z M126.4,134.2h-7.3v-7.3h7.3V134.2z M125.5,127.8H120v5.5h5.5V127.8z
				 M124.1,132h-2.7v-2.8h2.7V132z M127.7,134.2v-7.3h1.4v1.8h1.4v1.3h-1.4v2.8h1.4v1.4L127.7,134.2z M130.5,131.5h1.4v1.4h-1.4
				V131.5z M131.9,124.2v1.4h-1.4v1.4h-1.4v-1.4h1.4v-1.4H131.9z M134.1,125.1h1.4v1.4h-1.4V125.1z M131.8,131.5v-1.4h1.4v1.4H131.8
				z M131.4,127.8h1.4v-1.4h1.4v1.4h1.4v1.4h-4.1V127.8z"/>
			<g>
				<path class="st6" d="M115.8,114.7h3.2V113l-3.2,0V114.7z M146.8,113l-3.2,0v1.7l3.2,0V113z M126.9,114.7h3.2V113l-3.2,0V114.7z
					 M146.8,135h-3.2v1.7l3.2,0L146.8,135z M110.2,113l0,1.7h3.2l0-1.7H110.2z M141.2,114.7V113l-3.2,0l0,1.7L141.2,114.7z
					 M135.6,114.7l0-1.7l-3.2,0l0,1.7H135.6z M107.9,113l-3.2,0v1.7h3.2V113z M126.4,121.1h-13.5c-0.5,0-0.9,0.4-0.9,0.9
					c0,0.5,0.4,0.9,0.9,0.9l13.5,0c0.2,0,0.4-0.1,0.6-0.2c0.2-0.2,0.2-0.4,0.3-0.6C127.3,121.5,126.9,121.1,126.4,121.1z
					 M121.3,114.7h3.2V113h-3.2V114.7z M119,135l-3.2,0v1.7h3.2V135z M110.2,135l0,1.7h3.2V135H110.2z M107.9,136.7l0-1.7l-3.2,0
					v1.7H107.9z M130.2,123.2c-0.1,0.4-0.1,0.9,0.2,1.2l1.1,1.5l-0.1,1.9c0,0.4,0.2,0.9,0.5,1.1c0.4,0.3,0.8,0.3,1.2,0.2l1.8-0.6
					l1.8,0.6c0.4,0.1,0.9,0.1,1.2-0.2c0.1,0,0.1-0.1,0.2-0.1c0.3-0.3,0.4-0.6,0.4-1l-0.1-1.9l1.1-1.5c0.3-0.3,0.3-0.8,0.2-1.2
					c-0.1-0.4-0.5-0.7-0.9-0.9l-1.8-0.5l-1.1-1.5c-0.2-0.4-0.7-0.6-1.1-0.6c-0.4,0-0.8,0.2-1.1,0.6l-1.1,1.5l-1.8,0.5
					C130.7,122.5,130.3,122.8,130.2,123.2z M132.1,123.9l1.4-0.4c0.3-0.1,0.5-0.3,0.7-0.5l0.8-1.2l0.8,1.2c0.2,0.3,0.4,0.4,0.7,0.5
					l1.4,0.4l-0.9,1.2c-0.2,0.2-0.3,0.5-0.3,0.8l0,1.5l-1.4-0.5c-0.3-0.1-0.6-0.1-0.9,0l-1.4,0.5l0-1.5c0-0.3-0.1-0.6-0.3-0.8
					L132.1,123.9z M121.3,135v1.7l3.2,0V135H121.3z M107.5,124.8c0,2.7-1.9,5-4.5,5.6c-1.2,0.2-2,1.3-2,2.5v3.8
					c0,1.7,1.4,3.1,3.1,3.1l43.3,0c0.8,0,1.6-0.3,2.2-0.9c0.6-0.6,0.9-1.3,0.9-2.2l0-3.8c0-1.2-0.9-2.3-2-2.5
					c-2.6-0.6-4.5-2.9-4.5-5.6c0-2.7,1.9-5,4.5-5.6c1.2-0.2,2-1.3,2-2.5l0-3.8c0-0.8-0.3-1.6-0.9-2.2c-0.6-0.6-1.3-0.9-2.2-0.9
					h-43.3c-1.7,0-3.1,1.4-3.1,3.1v3.8c0,1.2,0.9,2.3,2,2.5C105.5,119.8,107.5,122.1,107.5,124.8z M103.3,117.6
					c-0.4-0.1-0.7-0.4-0.7-0.9v-3.8c0-0.7,0.6-1.3,1.3-1.3l43.3,0c0.4,0,0.7,0.1,1,0.4c0.3,0.3,0.4,0.6,0.4,1v3.8
					c0,0.4-0.3,0.8-0.7,0.9c-1.4,0.3-2.7,1-3.7,2c-1.4,1.4-2.2,3.2-2.2,5.3c0,3.5,2.5,6.5,5.9,7.3c0.4,0.1,0.7,0.4,0.7,0.9l0,3.8
					c0,0.7-0.6,1.3-1.3,1.3h-43.3c-0.7,0-1.3-0.6-1.3-1.3v-3.8c0-0.4,0.3-0.8,0.7-0.9c3.4-0.7,5.9-3.8,5.9-7.3
					C109.2,121.3,106.7,118.3,103.3,117.6z M141.2,135H138v1.7l3.2,0V135z M135.6,135h-3.2l0,1.7h3.2L135.6,135z M118.5,128.6h7.9
					c0.2,0,0.5-0.1,0.6-0.3c0.2-0.2,0.3-0.4,0.2-0.6c0-0.5-0.4-0.9-0.9-0.9h-7.9c-0.5,0-0.9,0.4-0.9,0.9
					C117.6,128.2,118,128.6,118.5,128.6z M126.9,135l0,1.7l3.2,0V135L126.9,135z"/>
			</g>
		</g>
		<g class="st10">
			<path class="st1" d="M134.5,78.8h-16c-0.5,0-0.9,0.4-0.9,0.9c0,0.5,0.4,0.9,0.9,0.9l16,0c0.2,0,0.5-0.1,0.6-0.3
				c0.2-0.2,0.2-0.4,0.2-0.6C135.3,79.2,135,78.8,134.5,78.8z M107.3,83.2c0,2.7-1.9,5.1-4.6,5.6c-1.2,0.2-2,1.3-2,2.5v3.8
				c0,1.7,1.4,3.1,3.1,3.1l43.5,0c0.8,0,1.6-0.3,2.2-0.9c0.6-0.6,0.9-1.3,0.9-2.2l0-3.8c0-1.2-0.9-2.3-2-2.5
				c-2.6-0.6-4.6-2.9-4.6-5.6c0-2.7,1.9-5.1,4.6-5.6c1.2-0.2,2-1.3,2-2.5l0-3.8c0-0.8-0.3-1.6-0.9-2.2c-0.6-0.6-1.3-0.9-2.2-0.9
				h-43.5c-1.7,0-3.1,1.4-3.1,3.1v3.8c0,1.2,0.9,2.3,2,2.5C105.4,78.2,107.3,80.5,107.3,83.2z M103.1,75.9c-0.4-0.1-0.7-0.4-0.7-0.9
				l0-3.8c0-0.7,0.6-1.4,1.4-1.4l43.5,0c0.4,0,0.7,0.1,1,0.4c0.3,0.3,0.4,0.6,0.4,1v3.8c0,0.4-0.3,0.8-0.7,0.9c-1.4,0.3-2.7,1-3.7,2
				c-1.4,1.4-2.2,3.2-2.2,5.3c0,3.5,2.5,6.6,5.9,7.3c0.4,0.1,0.7,0.4,0.7,0.9v3.8c0,0.7-0.6,1.4-1.4,1.4h-43.5
				c-0.8,0-1.4-0.6-1.4-1.4v-3.8c0-0.4,0.3-0.8,0.7-0.9c3.4-0.7,5.9-3.8,5.9-7.3C109,79.7,106.6,76.6,103.1,75.9z M118.5,88.1h16
				c0.2,0,0.5-0.1,0.6-0.3c0.2-0.2,0.3-0.4,0.2-0.6c0-0.5-0.4-0.9-0.9-0.9h-16c-0.5,0-0.9,0.4-0.9,0.9
				C117.6,87.7,118,88.1,118.5,88.1z"/>
		</g>
	</g>
	<g>
		<g>
			<g>
				<path class="st1" d="M80.7,74.9v2.2h2.2v-2.2H80.7z M82.9,78.2h-2.2v1.1h1.1v1.1h1.1v-1.1V78.2z M82.9,82.5H85v-2.2h-2.2V82.5z
					 M80.7,82.5h1.1v-2.2h-1.1V82.5z M83.9,77.1h-1.1v1.1h1.1V77.1z M87.2,82.5v-2.2h-1.1v2.2H87.2z M86.1,78.2v1.1h2.2v-1.1H86.1z
					 M85,80.4h1.1v-1.1H85V80.4z M85,79.3v-1.1h-1.1v1.1H85z M89.4,79.3h-1.1v3.2h2.2v-2.2h-1.1V79.3z M87.2,74.9H85V76h-1.1v1.1
					h3.2V74.9z M101,80.4v-2.2h-2.2v2.2H101z M101,76h-1.1v-1.1h-1.1V76v1.1h2.2V76z M96.7,82.5h3.2v-1.1h-1.1v-1.1h-2.2V82.5z
					 M97.7,77.1v1.1h1.1v-1.1H97.7z M93.4,77.1h2.2V76h-2.2V77.1z M92.3,74.9h-2.2V76h-0.8h-1.1v1.1h1.1v1.1h1.1V76h1.9V74.9z
					 M95.6,74.9V76h1.1v-1.1H95.6z M96.7,76v1.1h1.1V76H96.7z M91.3,77.1v2.2h1.1h1.1v-1.1h-1.1v-1.1H91.3z M97.7,79.3v-1.1h-3.2
					v2.2h2.2v-1.1H97.7z M93.4,80.4h-2.2v2.2h2.2h2.2v-1.1h-2.2V80.4z"/>
			</g>
		</g>
		<rect x="102.6" y="74.9" class="st1" width="1.2" height="8.3"/>
		<rect x="101.4" y="74.6" class="st1" width="0" height="8.3"/>
		<rect x="76.8" y="74.9" class="st1" width="1.7" height="7.6"/>
		<rect x="79.4" y="74.9" class="st1" width="0.8" height="7.6"/>
	</g>
</g>
</svg>
