<?xml version="1.0" encoding="utf-8"?>
<!-- Generator: Adobe Illustrator 21.1.0, SVG Export Plug-In . SVG Version: 6.00 Build 0)  -->
<svg version="1.1" id="Layer_1" xmlns="http://www.w3.org/2000/svg" xmlns:xlink="http://www.w3.org/1999/xlink" x="0px" y="0px"
	 viewBox="0 0 220 163" style="enable-background:new 0 0 220 163;" xml:space="preserve">
<style type="text/css">
	.st0{clip-path:url(#SVGID_1_);}
	.st1{display:none;}
	.st2{display:inline;fill:#8D734A;stroke:#232323;stroke-width:0.6;stroke-miterlimit:10;}
	.st3{fill:#8D734A;stroke:#8D734A;stroke-width:0.5;stroke-miterlimit:10;}
	.st4{fill:none;stroke:#8D734A;stroke-width:2.2;stroke-miterlimit:10;}
	.st5{clip-path:url(#SVGID_2_);}
	.st6{fill:#1B1B1B;}
</style>
<g>
	<g>
		<defs>
			<circle id="SVGID_5_" cx="105.8" cy="81.5" r="43.2"/>
		</defs>
		<clipPath id="SVGID_1_">
			<use xlink:href="#SVGID_5_"  style="overflow:visible;"/>
		</clipPath>
		<g class="st0">
			<g class="st1">
				<path class="st2" d="M129.7,97.9h-13.3V62.4h0l0-5.5c0-3.2-2.6-5.9-5.9-5.9H48.9c-3.2,0-5.9,2.6-5.9,5.9v5.5v7.3v39.6
					c-0.1,0-0.1,0-0.2,0h-8.5c-1.9,0-3.4,1.5-3.4,3.4v67.2c0,1.9,1.5,3.4,3.4,3.4h8.5c1.9,0,3.4-1.5,3.4-3.4v-30c0-0.6-0.5-1-1-1
					c-0.6,0-1,0.5-1,1v30c0,0.8-0.6,1.4-1.4,1.4h-8.5c-0.8,0-1.4-0.6-1.4-1.4V119h6.4c0.6,0,1-0.5,1-1c0-0.6-0.5-1-1-1h-6.4v-4.3
					c0-0.8,0.6-1.4,1.4-1.4h8.5c0.8,0,1.4,0.6,1.4,1.4v17.5c0,0,0,0,0,0.1c0,0.1,0,0.2,0.1,0.3c0,0,0,0.1,0,0.1
					c0,0.1,0.1,0.2,0.1,0.2c0,0,0.1,0.1,0.1,0.1c0,0,0.1,0.1,0.1,0.1c0,0,0.1,0,0.1,0c0.1,0.1,0.3,0.1,0.5,0.1c0,0,0,0,0,0h0h0
					c0.2,0,0.3,0,0.4-0.1c0,0,0,0,0.1,0c0.1-0.1,0.2-0.2,0.3-0.3c0,0,0,0,0,0c1.1-1.7,3.2-2.7,6.6-3.3c9.7-1.6,17.6-1.9,27-1.9
					c9.5,0,17.3,0.3,27,1.9c3.4,0.5,5.4,1.6,6.6,3.3c0,0,0,0,0.1,0.1c0,0.1,0.1,0.1,0.2,0.2c0,0,0.1,0.1,0.1,0.1
					c0.1,0,0.1,0.1,0.2,0.1c0.1,0,0.1,0,0.2,0c0,0,0.1,0,0.1,0c0,0,0.1,0,0.1,0c0.1,0,0.1,0,0.2,0c0.1,0,0.1,0,0.2-0.1
					c0,0,0.1,0,0.1,0c0,0,0-0.1,0.1-0.1c0,0,0.1-0.1,0.1-0.1c0-0.1,0.1-0.1,0.1-0.2c0,0,0-0.1,0.1-0.1c0-0.1,0-0.2,0-0.2
					c0,0,0-0.1,0-0.1V119h6.4c0.6,0,1-0.5,1-1c0-0.6-0.5-1-1-1h-6.4v-4.3c0-0.8,0.6-1.4,1.4-1.4h8.5c0.8,0,1.4,0.6,1.4,1.4v67.2
					c0,0.8-0.6,1.4-1.4,1.4h-8.5c-0.8,0-1.4-0.6-1.4-1.4c0,0,0-0.1,0-0.1c0,0,0-0.1,0-0.1c0-0.6-0.5-1-1-1H52.6c-0.6,0-1,0.5-1,1
					c0,0.6,0.5,1,1,1h60.7c0.4,1.5,1.7,2.6,3.3,2.6h8.5c1.9,0,3.4-1.5,3.4-3.4v-67.2c0-1.9-1.5-3.4-3.4-3.4h-8.5
					c-1.9,0-3.4,1.5-3.4,3.4v15c-1.5-1.1-3.5-1.8-6.1-2.2c-3.3-0.5-6.4-0.9-9.4-1.2v-12.8c0-1.8,0-3.4,0-5h32c1.2,0,2.2-1,2.2-2.2
					v-4.1C131.9,98.9,130.9,97.9,129.7,97.9z M45.1,62.4v-5.5c0-2.1,1.7-3.8,3.8-3.8h61.6c2.1,0,3.8,1.7,3.8,3.8l0,12.8
					c0,4.2-2.3,6.4-7.6,7.2c-5,0.8-9.6,1.3-14.1,1.6V59.6h15c1,0,1.9,0.8,1.9,1.8c0,0.6,0.5,1,1,1c0.6,0,1-0.5,1-1
					c0-2.1-1.8-3.9-3.9-3.9H51.9c-2.2,0-3.9,1.7-3.9,3.9c0,0.6,0.5,1,1,1c0.6,0,1-0.5,1-1c0-1,0.8-1.8,1.9-1.8h15v18.9
					c-4.5-0.3-9-0.8-14.1-1.6c-5.3-0.9-7.6-3-7.6-7.2V62.4z M90.6,59.6v19c-3.5,0.2-7.1,0.2-10.9,0.2c-3.8,0-7.4-0.1-10.9-0.2v-19
					H90.6z M95.6,111.5V124c-5.2-0.4-10.3-0.5-15.9-0.5c-5.6,0-10.7,0.1-15.9,0.5v-12.6c0-11.3,0-20.5-5.6-26.6
					c-0.4-0.4-1-0.4-1.5-0.1c-0.4,0.4-0.4,1-0.1,1.5c5.1,5.5,5.1,13.9,5.1,25.2v12.8c-3,0.3-6.1,0.7-9.4,1.2
					c-2.6,0.4-4.6,1.2-6.1,2.2v-15c0-1-0.5-2-1.2-2.6V75.6c1.9,2.1,4.8,2.9,7.3,3.3c9.9,1.6,17.8,1.9,27.3,1.9
					c9.6,0,17.5-0.3,27.3-1.9c2.4-0.4,5.4-1.2,7.3-3.3v22.3H98.1c0.5-4.7,1.7-8.4,4.7-11.6c0.4-0.4,0.4-1.1-0.1-1.5
					c-0.4-0.4-1.1-0.4-1.5,0.1c-3.4,3.6-4.7,7.8-5.2,13h-8.4c-1.2,0-2.2,1-2.2,2.2v4.1c0,1.2,1,2.2,2.2,2.2h8
					C95.6,108,95.6,109.7,95.6,111.5z M129.9,104.2c0,0.1-0.1,0.2-0.2,0.2h-42c-0.1,0-0.2-0.1-0.2-0.2v-4.1c0-0.1,0.1-0.2,0.2-0.2
					h42c0.1,0,0.2,0.1,0.2,0.2V104.2z"/>
				<path class="st2" d="M52.4,145.9c0.2-0.5,0-1.1-0.6-1.3c-3.2-1.3-5.2-2.7-5.4-3.9v-1.2c0.5-2.7,5.9-5.2,9.6-5.8
					c8.5-1.4,16.7-1.6,23.7-1.6c6.9,0,15.2,0.2,23.7,1.6c3.6,0.6,9.1,3.1,9.6,5.6c0,0.1,0.1,0.2,0.1,0.3v32.6c0,0.6,0.5,1,1,1
					c0.6,0,1-0.5,1-1V139c0-0.3-0.1-0.6-0.3-0.7c-1.3-3.8-8.1-6.2-11.1-6.7c-8.6-1.4-17-1.6-24-1.6c-7,0-15.4,0.2-24,1.6
					c-3.4,0.6-10.7,3.1-11.4,7.6c0,0,0,0.1,0,0.1c0,0,0,0,0,0.1v1.4c0,0,0,0.1,0,0.1c0,0,0,0.1,0,0.1c0.3,2.1,2.6,3.9,6.7,5.6
					c0.1,0,0.2,0.1,0.4,0.1C51.9,146.5,52.2,146.3,52.4,145.9z"/>
			</g>
			<g>
				<path class="st3" d="M25.3,129.1c-0.4,0-0.8,0.3-0.8,0.8v0.2c0,0.1,0,0.2,0.1,0.3c0,0,0,0.1,0,0.1c0,0.1,0.1,0.1,0.1,0.2
					c0,0,0.1,0.1,0.1,0.1l0.1,0.1c0.1,0.1,0.2,0.1,0.3,0.1l0.1,0h0c0.1,0,0.2,0,0.3-0.1c0.1-0.1,0.2-0.2,0.3-0.2l0.1-0.1
					c0-0.1,0.1-0.1,0.1-0.2v-0.4C26.1,129.5,25.7,129.1,25.3,129.1z"/>
				<path class="st3" d="M107.6,98.1H96.1V56.8c0-3.1-2.5-5.6-5.6-5.6H28.9c-3.1,0-5.6,2.5-5.6,5.6v52.6l-0.3,0c0,0-0.1,0-0.1,0
					c0,0,0,0-0.1,0h-8.5c-1.8,0-3.2,1.4-3.2,3.2v67.1c0,1.8,1.4,3.2,3.2,3.2h8.5c1.8,0,3.2-1.4,3.2-3.2v-48.7c0,0-0.1,0.1-0.1,0.1
					c0,0,0,0-0.1,0c-0.2,0.1-0.3,0.1-0.4,0.1l0,0l-0.1,0c0,0,0,0-0.1,0l-0.1,0c-0.2,0-0.3-0.1-0.5-0.2c0,0,0,0-0.1,0
					c0,0-0.1,0-0.1-0.1v48.7c0,0.9-0.7,1.6-1.6,1.6h-8.5c-0.9,0-1.6-0.7-1.6-1.6v-67.1c0-0.9,0.7-1.6,1.6-1.6h8.5
					c0.9,0,1.6,0.7,1.6,1.6v16.3c0.2-0.2,0.5-0.3,0.8-0.3c0.6,0,1.1,0.4,1.3,1l0,0v0.1c1.2-1.3,3.2-2.1,6.1-2.6
					c9.7-1.6,17.6-1.9,27-1.9s17.3,0.3,27,1.9c3.3,0.5,5.4,1.6,6.6,3.2V172c0,0.4,0.3,0.8,0.8,0.8c0.4,0,0.8-0.3,0.8-0.8v-41.9l0,0
					l0-17.4c0-0.9,0.7-1.6,1.6-1.6h8.4c0.9,0,1.6,0.7,1.6,1.6v67.1c0,0.9-0.7,1.6-1.6,1.6h-8.4c-0.9,0-1.6-0.7-1.6-1.6l0,0
					c0,0,0,0,0-0.1l0,0l0-0.1c0-0.4-0.4-0.8-0.8-0.8H32.6c-0.4,0-0.8,0.3-0.8,0.8c0,0.4,0.3,0.8,0.8,0.8h60.9l0,0.2
					c0.4,1.4,1.6,2.4,3.1,2.4h8.4c1.8,0,3.2-1.4,3.2-3.2v-67.1c0-1-0.4-1.8-1.1-2.4v-4.1h0.6c1.1,0,2-0.9,2-2v-4.1
					C109.6,99,108.7,98.1,107.6,98.1z M24.9,56.8c0-2.2,1.8-4.1,4.1-4.1h61.6c2.2,0,4.1,1.8,4.1,4.1l0,12.8c0,4.3-2.3,6.6-7.8,7.5
					c-4.8,0.8-9.3,1.3-14.1,1.6l-2.1,0.1c-3.2,0.2-6.7,0.2-10.9,0.2c-4.2,0-7.7-0.1-10.9-0.2l-2-0.1c-4.8-0.3-9.3-0.8-14.1-1.6
					c-5.5-0.9-7.8-3.1-7.8-7.5V56.8z M93.3,112.6v15.4l-0.4-0.3c-1.4-1.1-3.4-1.8-6-2.2c-3.1-0.5-6.2-0.9-9.4-1.2l-2-0.2
					c-4.7-0.4-9.4-0.5-15.9-0.5c-6.4,0-11.2,0.2-15.9,0.5l-2,0.2c-3.2,0.3-6.2,0.7-9.4,1.2c-2.6,0.4-4.5,1.1-6,2.2l-0.4,0.3v-15.4
					c0-0.9-0.4-1.8-1.1-2.4l-0.1-0.1V75l0.4,0.5c2,2.2,5,2.9,7.1,3.2c9.9,1.6,17.7,1.9,27.3,1.9c9.5,0,17.4-0.3,27.3-1.9
					c2.1-0.3,5.2-1.1,7.1-3.2l0.4-0.5v23.2H65.4c-1.1,0-2,0.9-2,2v4.1c0,1.1,0.9,2,2,2h29.2v4C93.8,110.7,93.3,111.6,93.3,112.6z
					 M105.5,109.5c-0.2,0-0.4-0.1-0.6-0.1h-8.4c-0.2,0-0.3,0-0.4,0v-3.3h9.5V109.5z M108,104.2c0,0.2-0.2,0.4-0.4,0.4H65.4
					c-0.2,0-0.4-0.2-0.4-0.4v-4.1c0-0.2,0.2-0.4,0.4-0.4h42.2c0.2,0,0.4,0.2,0.4,0.4V104.2z"/>
			</g>
		</g>
	</g>
	<circle class="st4" cx="105.8" cy="81.5" r="43.2"/>
	<g>
		<defs>
			<circle id="SVGID_7_" cx="105.8" cy="81.5" r="43.2"/>
		</defs>
		<clipPath id="SVGID_2_">
			<use xlink:href="#SVGID_7_"  style="overflow:visible;"/>
		</clipPath>
		<g class="st5">
			<path class="st3" d="M106.8,44.2c-0.2,0-0.3,0.1-0.4,0.2c-0.3,0.2-0.3,0.7-0.1,1c0,0,3,3.6,0.9,6.2c-2.8,3.6,0.2,8.4,0.3,8.6
				c0.2,0.3,0.7,0.4,1,0.2c0.2-0.1,0.3-0.3,0.3-0.4c0-0.2,0-0.4-0.1-0.5c-0.1-0.2-2.6-4.2-0.4-7c1.2-1.5,1.4-3.4,0.6-5.4
				c-0.5-1.4-1.4-2.5-1.5-2.6C107.2,44.3,107,44.2,106.8,44.2z"/>
		</g>
		<g class="st5">
			<path class="st3" d="M113.5,44.2c-0.2,0-0.3,0.1-0.5,0.2c-0.1,0.1-0.2,0.3-0.2,0.5c0,0.2,0,0.4,0.2,0.5c0,0,3,3.6,0.9,6.2
				c-2.8,3.6,0.2,8.4,0.3,8.6c0.2,0.3,0.7,0.4,1,0.2c0.2-0.1,0.3-0.3,0.3-0.4c0-0.2,0-0.4-0.1-0.5c-0.3-0.4-2.5-4.3-0.4-7
				c1.2-1.5,1.4-3.4,0.6-5.4c-0.6-1.5-1.5-2.6-1.5-2.6C113.9,44.3,113.7,44.2,113.5,44.2z"/>
		</g>
		<g class="st5">
			<g>
				<path class="st6" d="M134.1,93.7H89.6c-0.7,0-1.2-0.5-1.2-1.2v-1c0-0.7,0.5-1.2,1.2-1.2h44.5c0.7,0,1.2,0.5,1.2,1.2v1
					C135.3,93.1,134.8,93.7,134.1,93.7z M130.8,88.8h-38l0-0.1c0.4-10.1,8.7-18.1,18.9-18.1h0.2c10.1,0,18.4,8,18.9,18.1L130.8,88.8
					z M111.8,68.7c-1.1,0-2-0.9-2-2c0-1.1,0.9-2,2-2c1.1,0,2,0.9,2,2C113.8,67.8,112.9,68.7,111.8,68.7z"/>
			</g>
		</g>
		<g class="st5">
			<g>
				<path class="st3" d="M89.6,88.8c-1.4,0-2.6,1.2-2.6,2.6v1c0,1.4,1.2,2.6,2.6,2.6h44.5c1.4,0,2.6-1.2,2.6-2.6v-1
					c0-1.4-1.2-2.6-2.6-2.6h-1.9l0-0.1c-0.4-9.9-8.1-18.2-17.9-19.4l-0.3,0l0.2-0.2c0.6-0.6,1-1.5,1-2.4c0-1.9-1.5-3.4-3.4-3.4
					c-1.9,0-3.4,1.5-3.4,3.4c0,0.9,0.4,1.8,1,2.4l0.2,0.2l-0.3,0c-9.8,1.2-17.5,9.5-17.9,19.4l0,0.1H89.6z M134.1,93.7H89.6
					c-0.7,0-1.2-0.5-1.2-1.2v-1c0-0.7,0.5-1.2,1.2-1.2h44.5c0.7,0,1.2,0.5,1.2,1.2v1C135.3,93.1,134.8,93.7,134.1,93.7z M130.8,88.8
					h-38l0-0.1c0.4-10.1,8.7-18.1,18.9-18.1h0.2c10.1,0,18.4,8,18.9,18.1L130.8,88.8z M111.8,68.7c-1.1,0-2-0.9-2-2c0-1.1,0.9-2,2-2
					c1.1,0,2,0.9,2,2C113.8,67.8,112.9,68.7,111.8,68.7z"/>
			</g>
		</g>
	</g>
	<g>
		<g>
			<path class="st6" d="M156.3,98.1c0.3,0.3,0.8,0.3,1.1,0c0.2-0.3,0.2-0.7,0-1l-6.7-6.7c-1.7-1.7-4-2.7-6.5-2.7
				c-2.4,0-4.7,1-6.5,2.7l-2.7,2.7l-7.7-0.1c-0.9,0-1.7,0.4-2.3,1.1l-0.9,1.8l-5.9-0.1l6.8,6.8c0.1,0.1,0.3,0.2,0.5,0.2h13.4
				c0.1,0,0.1,0,0.1,0l7.4-1.8l3.6,3.4c0.3,0.3,0.3,0.7,0.6,0.4c0.2-0.3,0.2-0.7,0-1L156.3,98.1z"/>
		</g>
		<g>
			<g>
				<path class="st3" d="M146.6,101.5L146.6,101.5l3.6,3.6c0.2,0.2,0.7,0.2,1,0c0.2-0.3,0.2-0.7,0-0.9l-3.9-3.9
					c-0.2-0.2-0.4-0.2-0.6-0.2l-7.7,1.5l-13.7,0l0,0l-6.6-6.6l-1.8,0l7.8,7.8c0.1,0.1,0.3,0.2,0.5,0.2h14c0,0,0.1,0,0.1,0
					L146.6,101.5z M126.9,93c-0.9,0-1.7,0.4-2.3,1.1l-0.2,0.2c0,0-0.3,0.4-0.4,1.1c0,0.4,0,0.7,0,0.7c0.1,1.5,1.3,2.6,2.8,2.6
					l8.3,0.1c0.4,0,0.7-0.3,0.7-0.6c0-0.2-0.1-0.3-0.2-0.5c-0.1-0.1-0.3-0.2-0.5-0.2l-8.3-0.1c-0.4,0-0.8-0.2-1.1-0.5
					c-0.3-0.3-0.4-0.7-0.4-1.1c0-0.2,0-0.4,0.1-0.6c0.3-0.5,0.8-0.9,1.4-0.9l8.1,0.1c0.1,0,0.2,0,0.2,0c0.2,0,0.3-0.1,0.5-0.2
					l3.1-3.1c1.5-1.5,3.6-2.4,5.7-2.4c2.2,0,4.2,0.8,5.7,2.4l7,7c0.2,0.2,0.7,0.2,1,0c0.2-0.3,0.2-0.7,0-0.9l-7-7
					c-1.8-1.8-4.1-2.8-6.7-2.8c-2.5,0-4.9,1-6.7,2.8l-2.9,2.9h-0.1L126.9,93z"/>
			</g>
		</g>
	</g>
</g>
</svg>
